<svg width="21" height="26" viewBox="0 0 21 26" fill="none" xmlns="http://www.w3.org/2000/svg">
<g id="noun-appointments-6345589 1">
<path id="Vector" d="M11.004 9.81694H12.0126C12.2241 9.81694 12.3961 9.64659 12.3961 9.43713V8.43811C12.3961 8.22865 12.2241 8.0583 12.0126 8.0583H11.004C10.7925 8.0583 10.6205 8.22865 10.6205 8.43811V9.43713C10.6205 9.64659 10.7925 9.81694 11.004 9.81694ZM10.9498 8.43811C10.9498 8.40899 10.9746 8.38444 11.004 8.38444H12.0126C12.042 8.38444 12.0668 8.40899 12.0668 8.43811V9.43713C12.0668 9.46625 12.042 9.49079 12.0126 9.49079H11.004C10.9746 9.49079 10.9498 9.46625 10.9498 9.43713V8.43811ZM5.53349 12.2867H6.54212C6.75359 12.2867 6.92558 12.1164 6.92558 11.9069V10.9079C6.92558 10.6995 6.75527 10.53 6.54506 10.5283C6.54464 10.5283 6.54422 10.5281 6.5438 10.5281H6.54212H6.54128L5.99003 10.5225H5.98835C5.97827 10.5225 5.96945 10.5264 5.96 10.5281H5.5337C5.32223 10.5281 5.15024 10.6984 5.15024 10.9079V11.9069C5.15024 12.1164 5.32202 12.2867 5.53349 12.2867ZM5.47931 10.9079C5.47931 10.8788 5.50409 10.8542 5.53349 10.8542H6.54044C6.54044 10.8542 6.54149 10.8542 6.54212 10.8542C6.57152 10.8542 6.59609 10.8788 6.59609 10.9079V11.9069C6.59609 11.936 6.57131 11.9606 6.54191 11.9606H5.53328C5.50388 11.9606 5.4791 11.936 5.4791 11.9069L5.47931 10.9079ZM8.22527 9.78345H9.2339C9.44537 9.78345 9.61736 9.6131 9.61736 9.40364V8.40462C9.61736 8.19516 9.44537 8.02481 9.2339 8.02481H8.22527C8.0138 8.02481 7.84181 8.19516 7.84181 8.40462V9.40364C7.84181 9.6131 8.0138 9.78345 8.22527 9.78345ZM8.17109 8.40462C8.17109 8.3755 8.19587 8.35095 8.22527 8.35095H9.2339C9.2633 8.35095 9.28808 8.3755 9.28808 8.40462V9.40364C9.28808 9.43276 9.2633 9.45731 9.2339 9.45731H8.22527C8.19587 9.45731 8.17109 9.43276 8.17109 9.40364V8.40462ZM14.0481 9.84772H15.0568C15.2682 9.84772 15.4402 9.67737 15.4402 9.46791V8.46889C15.4402 8.25943 15.2682 8.08908 15.0568 8.08908H14.0481C13.8367 8.08908 13.6647 8.25943 13.6647 8.46889V9.46791C13.6647 9.67737 13.8367 9.84772 14.0481 9.84772ZM13.994 8.46889C13.994 8.43977 14.0187 8.41523 14.0481 8.41523H15.0568C15.0862 8.41523 15.111 8.43977 15.111 8.46889V9.46791C15.111 9.49703 15.0862 9.52158 15.0568 9.52158H14.0481C14.0187 9.52158 13.994 9.49703 13.994 9.46791V8.46889ZM11.0038 12.3423H12.0124C12.2239 12.3423 12.3959 12.1719 12.3959 11.9625V10.9634C12.3959 10.7604 12.234 10.5955 12.0315 10.5855C12.0286 10.5855 12.0263 10.5838 12.0233 10.5838H12.0132C12.0132 10.5838 12.0126 10.5838 12.0124 10.5838H11.0038C10.7923 10.5838 10.6203 10.7542 10.6203 10.9636V11.9627C10.6203 12.1721 10.7923 12.3423 11.0038 12.3423ZM10.9496 10.9634C10.9496 10.9343 10.9744 10.9098 11.0038 10.9098H12.0126C12.0418 10.91 12.0664 10.9345 12.0664 10.9634V11.9625C12.0664 11.9916 12.0416 12.0161 12.0122 12.0161H11.0036C10.9742 12.0161 10.9494 11.9916 10.9494 11.9625L10.9496 10.9634ZM5.53328 14.8121H6.54191C6.75338 14.8121 6.92537 14.6417 6.92537 14.4322V13.4332C6.92537 13.2238 6.75338 13.0534 6.54191 13.0534H5.53328C5.32181 13.0534 5.14982 13.2238 5.14982 13.4332V14.4322C5.14982 14.6417 5.32181 14.8121 5.53328 14.8121ZM5.4791 13.4332C5.4791 13.4041 5.50388 13.3796 5.53328 13.3796H6.54191C6.57131 13.3796 6.59609 13.4041 6.59609 13.4332V14.4322C6.59609 14.4614 6.57131 14.4859 6.54191 14.4859H5.53328C5.50388 14.4859 5.4791 14.4614 5.4791 14.4322V13.4332ZM8.22506 12.3088H9.23369C9.44516 12.3088 9.61715 12.1384 9.61715 11.929V10.9299C9.61715 10.7608 9.50438 10.619 9.34982 10.5699C9.34835 10.5693 9.34688 10.5691 9.34541 10.5684C9.30992 10.5576 9.27275 10.5501 9.23369 10.5501H8.22506C8.01359 10.5501 7.8416 10.7205 7.8416 10.9299V11.929C7.8416 12.1384 8.01359 12.3088 8.22506 12.3088ZM8.17088 10.9299C8.17088 10.9008 8.19566 10.8763 8.22506 10.8763H8.72759L9.24629 10.8815C9.26897 10.8877 9.28766 10.9056 9.28766 10.9297V11.9288C9.28766 11.9579 9.26288 11.9824 9.23348 11.9824H8.22485C8.19545 11.9824 8.17067 11.9579 8.17067 11.9288V10.9297L8.17088 10.9299ZM14.0479 12.373H15.0566C15.268 12.373 15.44 12.2027 15.44 11.9932V10.9942C15.44 10.7912 15.2781 10.6263 15.0755 10.6163C15.0725 10.6163 15.07 10.6146 15.0671 10.6146H15.0572C15.0572 10.6146 15.0568 10.6146 15.0566 10.6146H14.0479C13.8365 10.6146 13.6645 10.785 13.6645 10.9944V11.9935C13.6645 12.2029 13.8365 12.373 14.0479 12.373ZM13.9938 10.9942C13.9938 10.9651 14.0185 10.9406 14.0479 10.9406H15.0568C15.086 10.9408 15.1107 10.9653 15.1107 10.9942V11.9932C15.1107 12.0224 15.086 12.0469 15.0566 12.0469H14.0479C14.0185 12.0469 13.9938 12.0224 13.9938 11.9932V10.9942ZM11.0036 14.7544H12.0122C12.2237 14.7544 12.3957 14.5841 12.3957 14.3746V13.3756C12.3957 13.1662 12.2237 12.9958 12.0122 12.9958H11.0036C10.7921 12.9958 10.6201 13.1662 10.6201 13.3756V14.3746C10.6201 14.5841 10.7921 14.7544 11.0036 14.7544ZM10.9494 13.3756C10.9494 13.3465 10.9742 13.3219 11.0036 13.3219H12.0122C12.0416 13.3219 12.0664 13.3465 12.0664 13.3756V14.3746C12.0664 14.4038 12.0416 14.4283 12.0122 14.4283H11.0036C10.9742 14.4283 10.9494 14.4038 10.9494 14.3746V13.3756ZM8.22485 14.721H9.23348C9.44495 14.721 9.61694 14.5506 9.61694 14.3411V13.3421C9.61694 13.1327 9.44495 12.9623 9.23348 12.9623H8.22485C8.01338 12.9623 7.84139 13.1327 7.84139 13.3421V14.3411C7.84139 14.5506 8.01338 14.721 8.22485 14.721ZM8.17067 13.3421C8.17067 13.313 8.19545 13.2885 8.22485 13.2885H9.23348C9.26288 13.2885 9.28766 13.313 9.28766 13.3421V14.3411C9.28766 14.3703 9.26288 14.3948 9.23348 14.3948H8.22485C8.19545 14.3948 8.17067 14.3703 8.17067 14.3411V13.3421ZM5.45558 9.6651C5.46272 9.6651 5.46986 9.66531 5.477 9.66531C5.73026 9.66531 5.96882 9.55798 6.1511 9.36183C6.33296 9.16611 6.4367 8.90382 6.44363 8.62343C6.45203 8.2819 6.22922 7.95139 5.99318 7.60153C5.87411 7.42473 5.75084 7.24211 5.666 7.0651C5.63933 7.00956 5.58326 6.97358 5.52131 6.97212C5.45915 6.97129 5.40161 7.00395 5.37221 7.05803C5.27876 7.23067 5.14688 7.40726 5.0192 7.57803C4.76657 7.91623 4.5278 8.23593 4.51961 8.57726C4.51268 8.85764 4.60382 9.12451 4.77581 9.32876C4.95305 9.53926 5.19455 9.65865 5.45579 9.66489L5.45558 9.6651ZM5.28401 7.77209C5.36003 7.67038 5.43752 7.56659 5.50934 7.46071C5.57612 7.56991 5.64836 7.67724 5.71934 7.78249C5.92556 8.08825 6.12023 8.37716 6.11435 8.61532C6.10952 8.81667 6.03644 9.00324 5.90876 9.14094C5.78654 9.2726 5.62883 9.34395 5.46356 9.33895C5.29871 9.335 5.14415 9.25721 5.02865 9.11993C4.90769 8.97641 4.84385 8.78651 4.84889 8.58516C4.85477 8.34679 5.0633 8.06766 5.28401 7.77209ZM17.7385 15.2297C17.7383 15.1865 17.7206 15.1449 17.6893 15.1145C17.6585 15.0843 17.6169 15.0675 17.5736 15.0675H17.5722L16.5492 15.0762V14.1627C16.5492 14.0726 16.4755 13.9996 16.3846 13.9996H15.5022C15.4585 13.9996 15.4167 14.0169 15.3856 14.0475C15.3548 14.078 15.3373 14.1194 15.3373 14.1627V15.0866L14.3205 15.0954C14.2298 15.0962 14.1567 15.1694 14.1573 15.2593L14.162 16.1237C14.1622 16.167 14.1798 16.2086 14.2111 16.2389C14.242 16.2691 14.2836 16.2859 14.3268 16.2859H14.3283L15.3378 16.2772V17.171C15.3378 17.261 15.4115 17.3341 15.5024 17.3341H16.3848C16.4757 17.3341 16.5495 17.261 16.5495 17.171V16.2668L17.5799 16.2579C17.6706 16.257 17.7437 16.1838 17.7431 16.094L17.7385 15.2297ZM16.3833 15.9423C16.371 15.9423 16.36 15.9469 16.3485 15.9496C16.339 15.9517 16.3287 15.9519 16.3201 15.9556C16.3092 15.9602 16.3006 15.9683 16.2912 15.975C16.2836 15.9804 16.2748 15.9841 16.2681 15.9906C16.2601 15.9987 16.255 16.0091 16.2489 16.0187C16.2437 16.0268 16.2368 16.0334 16.233 16.0424C16.2286 16.0526 16.2284 16.0644 16.2263 16.0757C16.2244 16.0856 16.2202 16.0948 16.2202 16.1052V17.0079H15.6672V16.1129C15.6672 16.1129 15.6672 16.1125 15.6672 16.1123C15.6672 16.1121 15.6672 16.1118 15.6672 16.1116C15.6672 16.1019 15.663 16.0935 15.6614 16.0842C15.6591 16.0721 15.6584 16.0596 15.6538 16.0488C15.6515 16.0434 15.6469 16.0395 15.6439 16.0343C15.6364 16.021 15.6288 16.0076 15.6179 15.997C15.6156 15.9947 15.6124 15.9939 15.6101 15.9918C15.5967 15.9802 15.5822 15.9696 15.5656 15.9625C15.5585 15.9596 15.5499 15.9598 15.5423 15.9579C15.5293 15.9546 15.5169 15.95 15.5028 15.95C15.5026 15.95 15.5024 15.95 15.5022 15.95C15.502 15.95 15.5018 15.95 15.5013 15.95L14.491 15.9588L14.4881 15.4205L15.5041 15.4117C15.5154 15.4117 15.5253 15.4074 15.5358 15.4051C15.5463 15.4028 15.5576 15.4026 15.5673 15.3984C15.5772 15.3942 15.5849 15.3868 15.5937 15.3807C15.6024 15.3749 15.612 15.3705 15.6194 15.3633C15.6267 15.3558 15.6311 15.346 15.637 15.3373C15.6429 15.3285 15.6502 15.321 15.6544 15.3113C15.6586 15.3015 15.6588 15.29 15.6609 15.2794C15.663 15.269 15.6672 15.2595 15.6672 15.2484V15.247V14.326H16.2202V15.241C16.2202 15.241 16.2202 15.2414 16.2202 15.2416C16.2202 15.2418 16.2202 15.242 16.2202 15.2424C16.2202 15.2514 16.2242 15.259 16.2256 15.2678C16.2279 15.2807 16.2288 15.2938 16.2338 15.3054C16.2349 15.3079 16.237 15.3096 16.2382 15.3119C16.2651 15.366 16.3199 15.404 16.3848 15.404C16.385 15.404 16.3852 15.404 16.3854 15.404C16.3857 15.404 16.3859 15.404 16.3861 15.404L17.4098 15.3953L17.4128 15.9336L16.3833 15.9423ZM18.1707 14.01L18.2557 4.74694C18.2614 4.13355 17.8124 3.62915 17.2548 3.6227L15.4675 3.60211L15.4726 3.11892C15.4743 2.94919 15.4089 2.78862 15.2884 2.66673C15.1679 2.54484 15.0072 2.47683 14.8359 2.47495C14.8335 2.47495 14.8314 2.47495 14.8291 2.47495C14.4774 2.47495 14.1895 2.75659 14.1859 3.10561L14.1809 3.58713L12.3377 3.56591L12.3429 3.06047C12.3446 2.89075 12.2793 2.73017 12.1588 2.60828C12.0382 2.48639 11.8776 2.41838 11.7062 2.41651C11.5363 2.41443 11.3727 2.47953 11.2497 2.59892C11.1266 2.71831 11.058 2.87743 11.0561 3.04716L11.0508 3.55094L9.35486 3.53139L9.36032 3.0118C9.36389 2.66049 9.07829 2.37158 8.7236 2.36804C8.72129 2.36804 8.71919 2.36804 8.71688 2.36804C8.36513 2.36804 8.07722 2.64967 8.07365 2.9987L8.06819 3.51662L6.44594 3.4979L6.45077 3.03697C6.45245 2.86724 6.38714 2.70667 6.2666 2.58478C6.14606 2.46289 5.98541 2.39487 5.81405 2.393C5.81174 2.393 5.80964 2.393 5.80733 2.393C5.63849 2.393 5.4791 2.45769 5.35751 2.57542C5.23445 2.69481 5.16578 2.85393 5.16389 3.02366L5.15906 3.48292L4.49315 3.47523L3.40934 3.46275H3.39107C3.14054 3.46025 2.9003 3.55843 2.71235 3.74084C2.49689 3.94988 2.37173 4.25003 2.36879 4.56431L2.26568 15.7976C2.26001 16.411 2.70899 16.9154 3.26654 16.9218H3.28397C3.28397 16.9218 3.2846 16.922 3.28502 16.922L13.5259 17.0402C14.0078 17.8694 14.91 18.4304 15.9434 18.4304C17.4816 18.4304 18.7332 17.1907 18.7332 15.6671C18.7332 15.045 18.5222 14.4724 18.1707 14.01ZM14.3552 4.98031C14.4757 5.1022 14.6364 5.17022 14.8077 5.17209C14.81 5.17209 14.8123 5.17209 14.8144 5.17209C14.9833 5.17209 15.1427 5.1074 15.264 4.98967C15.3827 4.87444 15.4495 4.72177 15.4556 4.5587C15.5314 4.64398 15.5738 4.74257 15.5723 4.84511C15.5683 5.13715 15.2128 5.38155 14.7939 5.38155C14.7911 5.38155 14.7884 5.38155 14.7857 5.38155C14.5343 5.37967 14.2978 5.29086 14.1527 5.14422C14.0893 5.07995 14.0139 4.97407 14.0158 4.83513C14.0175 4.72052 14.0738 4.61028 14.1708 4.51939V4.52833C14.1689 4.69806 14.2344 4.85863 14.355 4.98052L14.3552 4.98031ZM14.8325 2.80131C14.9159 2.80214 14.9942 2.83542 15.0532 2.89511C15.1122 2.95481 15.1441 3.03302 15.1433 3.11559L15.1317 4.23526C15.1317 4.23526 15.1317 4.23713 15.1317 4.23817L15.1286 4.53811C15.1278 4.62068 15.0942 4.69827 15.0339 4.75671C14.9736 4.81516 14.8944 4.84844 14.8113 4.84595C14.7279 4.84511 14.6496 4.81183 14.5906 4.75214C14.5316 4.69244 14.4996 4.61423 14.5005 4.53166L14.5085 3.75499C14.5085 3.75499 14.5085 3.75457 14.5085 3.75436C14.5085 3.75415 14.5085 3.75395 14.5085 3.75374L14.5152 3.10935C14.5169 2.93775 14.6601 2.79902 14.8325 2.80131ZM11.042 4.47508C11.0416 4.64294 11.1065 4.80143 11.2257 4.92207C11.3463 5.04396 11.5069 5.11198 11.6783 5.11385C11.6806 5.11385 11.6827 5.11385 11.685 5.11385C11.8539 5.11385 12.0132 5.04916 12.1348 4.93143C12.2505 4.81932 12.3159 4.67143 12.3251 4.51335C12.4017 4.59905 12.4446 4.69827 12.4433 4.80143C12.4393 5.09347 12.0838 5.33787 11.6649 5.33787C11.6621 5.33787 11.6594 5.33787 11.6567 5.33787C11.4053 5.33599 11.1688 5.24718 11.0237 5.10054C10.9603 5.03627 10.8849 4.93039 10.8868 4.79145C10.8885 4.67684 10.945 4.56619 11.0422 4.47529L11.042 4.47508ZM11.4803 2.8323C11.5405 2.77385 11.6193 2.74078 11.7029 2.74307C11.8761 2.74473 12.0153 2.88575 12.0137 3.05735L12.0019 4.19199C12.0019 4.19199 12.0019 4.19283 12.0019 4.19324L11.999 4.47987C11.9981 4.56244 11.9645 4.64003 11.9043 4.69847C11.8448 4.75609 11.7671 4.78771 11.685 4.78771C11.684 4.78771 11.6829 4.78771 11.6817 4.78771C11.5084 4.78604 11.3692 4.64502 11.3709 4.47342L11.3786 3.71879C11.3786 3.71879 11.3786 3.71838 11.3786 3.71817C11.3786 3.71796 11.3786 3.71775 11.3786 3.71755L11.3856 3.05091C11.3864 2.96833 11.42 2.89075 11.4803 2.8323ZM8.06042 4.43723C8.06567 4.78105 8.34644 5.06143 8.69567 5.06497C8.69798 5.06497 8.70008 5.06497 8.70239 5.06497C8.87123 5.06497 9.03062 5.00028 9.15221 4.88255C9.26519 4.77294 9.32966 4.62921 9.34121 4.47508C9.4187 4.56119 9.46196 4.66062 9.46049 4.76441C9.4565 5.05644 9.10097 5.30084 8.68223 5.30084C8.6795 5.30084 8.67677 5.30084 8.67383 5.30084C8.42246 5.29897 8.186 5.21015 8.04089 5.06351C7.97747 4.99924 7.90208 4.89337 7.90397 4.75443C7.90565 4.6394 7.96235 4.52833 8.06042 4.43723ZM8.72024 2.69439C8.89349 2.69627 9.03272 2.83708 9.03104 3.00868L9.01907 4.15559L9.01613 4.43099C9.01445 4.60134 8.87375 4.73883 8.70218 4.73883C8.70113 4.73883 8.70008 4.73883 8.69882 4.73883C8.52557 4.73695 8.38634 4.59614 8.38802 4.42454L8.39096 4.14332L8.39579 3.68385C8.39579 3.68385 8.39579 3.68385 8.39579 3.68364C8.39579 3.68343 8.39579 3.68385 8.39579 3.68364L8.40293 3.00223C8.40461 2.83063 8.5472 2.69148 8.72024 2.69439ZM8.06483 3.84297L8.06273 4.04057C7.76348 4.19844 7.57847 4.46198 7.57448 4.75006C7.57175 4.94599 7.65386 5.13839 7.80527 5.29169C8.01338 5.50219 8.3288 5.62449 8.67089 5.62719C8.67467 5.62719 8.67824 5.62719 8.68202 5.62719C9.28724 5.62719 9.78305 5.24385 9.78956 4.76899C9.79334 4.49214 9.62639 4.23131 9.34919 4.06719L9.35129 3.85795L11.0472 3.8775L11.0451 4.07739C10.7459 4.23526 10.5609 4.49879 10.5569 4.78687C10.5542 4.98281 10.6363 5.17521 10.7877 5.32871C10.9958 5.53921 11.3112 5.66151 11.6533 5.66401C11.6571 5.66401 11.6607 5.66401 11.6644 5.66401C12.2694 5.66401 12.7653 5.28087 12.772 4.8058C12.7758 4.52895 12.609 4.26812 12.3318 4.10401L12.3339 3.89227L14.1771 3.91348L14.175 4.12107C13.8755 4.27894 13.6905 4.54247 13.6865 4.83076C13.6838 5.0267 13.7659 5.2191 13.9173 5.3726C14.1254 5.5831 14.4408 5.7054 14.7829 5.7079C14.7867 5.7079 14.7903 5.7079 14.7941 5.7079C15.3993 5.7079 15.8951 5.32455 15.9016 4.84969C15.9054 4.57284 15.7386 4.31222 15.4614 4.1479L15.4638 3.92825L17.2506 3.94884C17.627 3.95321 17.93 4.30993 17.926 4.74382L17.9094 6.54697L6.53813 6.43111C6.30671 6.30465 6.04925 6.21646 5.77163 6.18047C5.27939 6.11662 4.79135 6.21937 4.37177 6.46835L2.69933 6.39721L2.71613 4.56743C2.71823 4.33905 2.80748 4.12294 2.96078 3.97422C3.08573 3.85295 3.24386 3.78598 3.40493 3.7891L5.03096 3.80782L5.15549 3.80927L5.15297 4.05929C4.85372 4.21716 4.66871 4.4807 4.66472 4.76878C4.66199 4.96471 4.74389 5.15711 4.89551 5.31041C5.10362 5.52091 5.41904 5.64321 5.76113 5.64591C5.76491 5.64591 5.76848 5.64591 5.77226 5.64591C6.37748 5.64591 6.87329 5.26278 6.8798 4.78771C6.88358 4.51086 6.71663 4.25003 6.43964 4.08591L6.44237 3.82404L8.06462 3.84276L8.06483 3.84297ZM4.36043 6.86854C4.6874 6.61977 5.07947 6.48831 5.48498 6.48831C5.56583 6.48831 5.64752 6.49351 5.729 6.50412C6.74141 6.63537 7.4573 7.55785 7.32479 8.56083C7.26053 9.04671 7.00937 9.47852 6.61709 9.777C6.22502 10.0755 5.73887 10.2051 5.24831 10.1414C4.2359 10.0102 3.52001 9.08769 3.65252 8.08471C3.71678 7.59883 3.96815 7.16702 4.36043 6.86854ZM6.24245 4.90772C6.35669 4.79686 6.42179 4.65084 6.43208 4.49463C6.50915 4.58054 6.5522 4.67975 6.55073 4.78334C6.54674 5.07537 6.19121 5.31977 5.77247 5.31977C5.76974 5.31977 5.76701 5.31977 5.76428 5.31977C5.51291 5.3179 5.27645 5.22908 5.13134 5.08244C5.06792 5.01817 4.99253 4.9123 4.99442 4.77335C4.9961 4.65854 5.05259 4.54767 5.15024 4.45678C5.15129 4.62255 5.21555 4.77918 5.33357 4.89857C5.45411 5.02046 5.61476 5.08847 5.78612 5.09035C5.78843 5.09035 5.79053 5.09035 5.79284 5.09035C5.96168 5.09035 6.12107 5.02566 6.24245 4.90793V4.90772ZM5.80733 2.71935C5.80838 2.71935 5.80943 2.71935 5.81069 2.71935C5.89406 2.72019 5.97239 2.75347 6.0314 2.81316C6.09041 2.87286 6.12233 2.95107 6.12149 3.03364L6.10973 4.17411C6.10973 4.17411 6.10973 4.17473 6.10973 4.17515L6.10679 4.45615C6.10595 4.53873 6.07235 4.61631 6.01208 4.67476C5.95181 4.73321 5.87222 4.76587 5.78948 4.76399C5.70611 4.76316 5.62778 4.72988 5.56877 4.67019C5.50976 4.61049 5.47784 4.53228 5.47868 4.44971L5.48708 3.65015L5.49359 3.0274C5.49527 2.85705 5.63597 2.71956 5.80754 2.71956L5.80733 2.71935ZM2.59496 15.8005L2.62226 12.8173C2.63339 12.7957 2.64116 12.772 2.64137 12.746L2.6966 6.72356L3.96605 6.77743C3.61577 7.11481 3.39044 7.55494 3.32597 8.04207C3.16994 9.22331 4.01309 10.3099 5.20568 10.4644C5.30186 10.4769 5.39783 10.483 5.49317 10.483C5.97092 10.483 6.43271 10.3282 6.81785 10.0351C7.27985 9.6834 7.57574 9.17463 7.65134 8.60243C7.745 7.89398 7.47725 7.2211 6.99215 6.76142L17.9065 6.8727L17.8443 13.65C17.3456 13.1884 16.6782 12.9035 15.9432 12.9035C14.4049 12.9035 13.1533 14.1429 13.1533 15.6667C13.1533 16.0366 13.2283 16.3889 13.3619 16.7117L3.27011 16.5952C2.89379 16.5909 2.59076 16.2344 2.59475 15.8003L2.59496 15.8005ZM15.9434 18.1041C14.5868 18.1041 13.483 17.0108 13.483 15.6671C13.483 14.3235 14.5868 13.2302 15.9434 13.2302C17.3 13.2302 18.4038 14.3235 18.4038 15.6671C18.4038 17.0108 17.3 18.1041 15.9434 18.1041Z" fill="black"/>
</g>
</svg>
