<svg width="21" height="21" viewBox="0 0 21 21" fill="none" xmlns="http://www.w3.org/2000/svg">
<g id="Group">
<path id="Vector" d="M19.8901 9.30342C20.0162 8.45313 19.9737 7.58632 19.7651 6.75242C19.4796 5.61302 18.8893 4.57283 18.0576 3.74342C17.2282 2.91149 16.188 2.32104 15.0486 2.03542C14.2146 1.82693 13.3478 1.78463 12.4976 1.91092M16.0951 8.90192C16.165 8.43784 16.1248 7.96382 15.9779 7.5181C15.8309 7.07239 15.5813 6.66744 15.2491 6.33592C14.9175 6.00372 14.5126 5.75408 14.0669 5.60713C13.6212 5.46018 13.1471 5.42003 12.6831 5.48992" stroke="#026102" stroke-width="2" stroke-linecap="round" stroke-linejoin="round"/>
<path id="Vector_2" d="M6.18817 3.39697C6.36654 3.39706 6.54164 3.44487 6.69532 3.53542C6.849 3.62597 6.97566 3.75598 7.06217 3.91197L8.28567 6.11497C8.36461 6.25714 8.40769 6.41642 8.41118 6.579C8.41466 6.74158 8.37845 6.90255 8.30567 7.04797L7.12717 9.40447C7.12717 9.40447 7.46867 11.1605 8.89767 12.5895C10.3272 14.0185 12.0772 14.3545 12.0772 14.3545L14.4332 13.176C14.5787 13.1032 14.7398 13.067 14.9025 13.0706C15.0651 13.0742 15.2245 13.1174 15.3667 13.1965L17.5767 14.425C17.7324 14.5117 17.8621 14.6384 17.9524 14.7921C18.0427 14.9457 18.0902 15.1208 18.0902 15.299V17.836C18.0902 19.1275 16.8902 20.061 15.6662 19.6475C13.1522 18.7995 9.25017 17.184 6.77617 14.711C4.30317 12.2375 2.68817 8.33497 1.83967 5.82097C1.42667 4.59697 2.35967 3.39697 3.65167 3.39697H6.18817Z" fill="#026102" stroke="#026102" stroke-width="2" stroke-linejoin="round"/>
</g>
</svg>
