<svg width="30" height="30" viewBox="0 0 30 30" fill="none" xmlns="http://www.w3.org/2000/svg">
<g id="Bold / Notifications / Bell ">
<g clip-path="url(#clip0_422_1315)">
<g id="Vector">
<path d="M13.7649 23.9281C14.8681 24.724 16.3281 25.0221 17.7564 24.6125C19.1847 24.203 20.2649 23.1765 20.7787 21.9169C18.5411 22.8999 16.1833 23.576 13.7649 23.9281Z" fill="#10989E"/>
<path d="M20.6608 10.2558L20.8549 10.9327C21.0878 11.7449 21.5473 12.4725 22.1755 13.0238L23.7149 14.3747C25.121 15.6086 24.9683 17.8777 23.4143 18.841C19.3491 21.361 14.6826 22.6991 9.8997 22.7162C8.07137 22.7228 6.73946 20.8795 7.27804 19.0879L7.86768 17.1265C8.1083 16.3261 8.11241 15.4655 7.8795 14.6533L7.68542 13.9764C6.61981 10.2602 8.66059 6.41473 12.2436 5.38731C15.8267 4.35988 19.5952 6.53959 20.6608 10.2558Z" fill="#10989E"/>
</g>
<circle id="Ellipse 31" cx="17.2583" cy="6.55008" r="3.5" transform="rotate(-16 17.2583 6.55008)" fill="#FF0000"/>
</g>
</g>
<defs>
<clipPath id="clip0_422_1315">
<rect x="0.157227" y="6.77246" width="24" height="24" rx="5" transform="rotate(-16 0.157227 6.77246)" fill="white"/>
</clipPath>
</defs>
</svg>
