<svg width="24" height="30" viewBox="0 0 24 30" fill="none" xmlns="http://www.w3.org/2000/svg">
<g id="noun-billing-7110963 1">
<path id="Vector" d="M20.2815 5.10427C19.8579 4.71105 19.1838 4.74056 19.0508 4.75098H7.95254C6.88975 4.75098 6.0247 5.63205 6.0247 6.71452V19.0583H4.7301C4.27414 19.0887 3.41333 19.4133 3.41333 20.4211C3.41333 21.4038 4.25198 21.8135 4.69515 21.8925C4.7139 21.896 4.73265 21.8977 4.75225 21.8977H15.3306C15.3357 21.8977 15.3417 21.8977 15.3468 21.8968C15.461 21.9142 15.5667 21.9203 15.6604 21.9203C15.8309 21.9203 15.9587 21.9003 16.0115 21.8899C17.1425 21.7883 17.7902 21.0765 17.7902 19.9342L17.7919 8.23016H20.2814C20.4621 8.23016 20.6087 8.08085 20.6087 7.89682V5.89942C20.6087 5.57824 20.4954 5.30305 20.2815 5.10427ZM4.78467 21.2301C4.65512 21.2005 4.06877 21.033 4.06877 20.4202C4.06877 19.8255 4.62871 19.7361 4.76593 19.7231H13.7157C13.7575 20.3559 13.9203 20.8603 14.2041 21.2292L4.78467 21.2301ZM17.1375 6.71449V19.934C17.1375 20.7257 16.7343 21.1606 15.9409 21.2266C15.9272 21.2275 15.9119 21.2301 15.8983 21.2327C15.8931 21.2344 15.3196 21.3516 14.8926 20.9991C14.5389 20.7075 14.3599 20.1658 14.3599 19.3898C14.3599 19.2057 14.2133 19.0564 14.0326 19.0564L6.68012 19.0573V6.71442C6.68012 5.99913 7.25115 5.41755 7.95341 5.41755H17.6224C17.3215 5.7639 17.1375 6.21712 17.1375 6.71449ZM19.9542 7.56345H17.792V6.71449C17.792 5.9992 18.363 5.41763 19.0653 5.41763C19.0746 5.41763 19.0849 5.41676 19.0942 5.41589C19.2263 5.40461 19.6465 5.41329 19.8425 5.59645C19.8911 5.64158 19.9559 5.72232 19.9559 5.89854L19.9542 7.56345Z" fill="black"/>
<path id="Vector_2" d="M9.60352 13.6094H8.67029C8.48961 13.6094 8.34302 13.7587 8.34302 13.9427C8.34302 14.1267 8.48961 14.276 8.67029 14.276H9.60352C9.7842 14.276 9.93079 14.1267 9.93079 13.9427C9.93079 13.7578 9.7842 13.6094 9.60352 13.6094Z" fill="black"/>
<path id="Vector_3" d="M12.4749 13.6094H11.5416C11.3609 13.6094 11.2144 13.7587 11.2144 13.9427C11.2144 14.1267 11.3609 14.276 11.5416 14.276H12.4749C12.6555 14.276 12.8021 14.1267 12.8021 13.9427C12.8021 13.7578 12.6555 13.6094 12.4749 13.6094Z" fill="black"/>
<path id="Vector_4" d="M15.1057 13.6094H14.1725C13.9918 13.6094 13.8452 13.7587 13.8452 13.9427C13.8452 14.1267 13.9918 14.276 14.1725 14.276H15.1057C15.2864 14.276 15.433 14.1267 15.433 13.9427C15.433 13.7578 15.2873 13.6094 15.1057 13.6094Z" fill="black"/>
<path id="Vector_5" d="M9.60352 15.5591H8.67029C8.48961 15.5591 8.34302 15.7084 8.34302 15.8924C8.34302 16.0764 8.48961 16.2257 8.67029 16.2257H9.60352C9.7842 16.2257 9.93079 16.0764 9.93079 15.8924C9.93079 15.7075 9.7842 15.5591 9.60352 15.5591Z" fill="black"/>
<path id="Vector_6" d="M12.4749 15.5591H11.5416C11.3609 15.5591 11.2144 15.7084 11.2144 15.8924C11.2144 16.0764 11.3609 16.2257 11.5416 16.2257H12.4749C12.6555 16.2257 12.8021 16.0764 12.8021 15.8924C12.8021 15.7075 12.6555 15.5591 12.4749 15.5591Z" fill="black"/>
<path id="Vector_7" d="M15.1057 15.5591H14.1725C13.9918 15.5591 13.8452 15.7084 13.8452 15.8924C13.8452 16.0764 13.9918 16.2257 14.1725 16.2257H15.1057C15.2864 16.2257 15.433 16.0764 15.433 15.8924C15.433 15.7075 15.2873 15.5591 15.1057 15.5591Z" fill="black"/>
<path id="Vector_8" d="M9.60352 17.264H8.67029C8.48961 17.264 8.34302 17.4133 8.34302 17.5974C8.34302 17.7814 8.48961 17.9307 8.67029 17.9307H9.60352C9.7842 17.9307 9.93079 17.7814 9.93079 17.5974C9.93079 17.4133 9.7842 17.264 9.60352 17.264Z" fill="black"/>
<path id="Vector_9" d="M12.4749 17.264H11.5416C11.3609 17.264 11.2144 17.4133 11.2144 17.5974C11.2144 17.7814 11.3609 17.9307 11.5416 17.9307H12.4749C12.6555 17.9307 12.8021 17.7814 12.8021 17.5974C12.8021 17.4133 12.6555 17.264 12.4749 17.264Z" fill="black"/>
<path id="Vector_10" d="M15.1057 17.264H14.1725C13.9918 17.264 13.8452 17.4133 13.8452 17.5974C13.8452 17.7814 13.9918 17.9307 14.1725 17.9307H15.1057C15.2864 17.9307 15.433 17.7814 15.433 17.5974C15.433 17.4133 15.2873 17.264 15.1057 17.264Z" fill="black"/>
<path id="Vector_11" d="M11.1886 11.0833C11.2065 11.0928 11.4468 11.2135 11.7579 11.2534V11.3932C11.7579 11.5772 11.9045 11.7265 12.0852 11.7265C12.2659 11.7265 12.4125 11.5772 12.4125 11.3932V11.1718C12.4824 11.1415 12.5522 11.105 12.6187 11.0547C12.8966 10.8463 12.9477 10.6067 12.9417 10.4418C12.9298 10.1076 12.6733 9.77861 12.1798 9.46352C11.9139 9.29338 11.8593 9.12586 11.8679 9.09548C11.8679 9.09548 11.873 9.0868 11.8943 9.07378C12.0375 8.98957 12.375 9.04079 12.5574 9.10155C12.7287 9.15885 12.9136 9.0651 12.9707 8.89062C13.0278 8.71614 12.9349 8.52691 12.7636 8.46875C12.7321 8.45833 12.594 8.41406 12.4116 8.38629V8.23958C12.4116 8.05556 12.265 7.90625 12.0843 7.90625C11.9037 7.90625 11.7571 8.05556 11.7571 8.23958V8.41406C11.6906 8.43403 11.6267 8.46094 11.5662 8.49653C11.3454 8.62674 11.2167 8.84115 11.2125 9.08679C11.2065 9.42533 11.4375 9.77691 11.8312 10.0278C12.2028 10.2656 12.2855 10.434 12.288 10.4592C12.2855 10.4653 12.271 10.487 12.2301 10.5174C11.9599 10.7196 11.4886 10.4904 11.4852 10.4887C11.3241 10.4054 11.1272 10.4696 11.0446 10.6337C10.9636 10.7986 11.0275 10.9991 11.1886 11.0833Z" fill="black"/>
<path id="Vector_12" d="M12.005 12.7456C13.6295 12.7456 14.9505 11.4001 14.9505 9.74561C14.9505 8.09109 13.6295 6.74561 12.005 6.74561C10.3806 6.74561 9.05957 8.09109 9.05957 9.74561C9.05957 11.4001 10.3814 12.7456 12.005 12.7456ZM12.005 7.41227C13.2681 7.41227 14.2959 8.45914 14.2959 9.74561C14.2959 11.0321 13.2681 12.0789 12.005 12.0789C10.7419 12.0789 9.71412 11.0321 9.71412 9.74561C9.71412 8.45914 10.7419 7.41227 12.005 7.41227Z" fill="black"/>
</g>
</svg>
