<svg width="73" height="85" viewBox="0 0 73 85" fill="none" xmlns="http://www.w3.org/2000/svg">
<g id="noun-blood-7385126 1">
<path id="Vector" d="M43 80.6944C57.1462 80.6944 68.653 69.2463 68.653 55.1981C68.653 48.2467 63.0582 41.2222 57.1212 33.7851C52.0883 27.4414 46.8598 20.9036 45.6871 14.8758C45.4184 13.4904 44.1479 12.5424 42.7309 12.6397C41.5093 12.7612 40.5076 13.6362 40.2633 14.8272C38.9929 20.8549 33.8622 27.3688 28.8785 33.6642C22.9415 41.1503 17.3467 48.2234 17.3467 55.1993C17.3467 69.2475 28.8543 80.6956 42.9997 80.6956L43 80.6944ZM56.4379 52.7676C57.7817 52.7676 58.8811 53.8613 58.8811 55.1981C58.8811 63.8999 51.747 70.9722 43.0008 70.9722C41.657 70.9722 40.5576 69.8785 40.5576 68.5417C40.5576 67.2048 41.657 66.1111 43.0008 66.1111C49.0599 66.1111 53.9947 61.2257 53.9947 55.1981C53.9947 53.8613 55.0941 52.7676 56.4379 52.7676ZM35.6712 46.6668H40.5576V41.8057C40.5576 40.4689 41.657 39.3752 43.0008 39.3752C44.3446 39.3752 45.444 40.4689 45.444 41.8057V46.6668H50.3303C51.6741 46.6668 52.7735 47.7605 52.7735 49.0974C52.7735 50.4342 51.6741 51.5279 50.3303 51.5279H45.444V56.389C45.444 57.7259 44.3446 58.8196 43.0008 58.8196C41.657 58.8196 40.5576 57.7259 40.5576 56.389V51.5279H35.6712C34.3275 51.5279 33.2281 50.4342 33.2281 49.0974C33.2281 47.7605 34.3275 46.6668 35.6712 46.6668Z" fill="#FF0808" fill-opacity="0.19"/>
</g>
</svg>
