<svg width="12" height="15" viewBox="0 0 12 15" fill="none" xmlns="http://www.w3.org/2000/svg">
<g id="noun-calendar-7381096 1">
<path id="Vector" d="M3.41461 1.38889C3.28379 1.38889 3.1747 1.5 3.1747 1.63324V3.66669C3.1747 3.79993 3.28379 3.91104 3.41461 3.91104C3.54543 3.91104 3.65452 3.79993 3.65452 3.66669V1.63324C3.64344 1.5 3.54543 1.38889 3.41461 1.38889ZM8.59643 1.38889C8.46561 1.38889 8.35651 1.5 8.35651 1.63324V3.66669C8.35651 3.79993 8.46561 3.91104 8.59643 3.91104C8.72725 3.91104 8.83634 3.79993 8.83634 3.66669V1.63324C8.82526 1.5 8.72725 1.38889 8.59643 1.38889ZM1.76712 2.11111C1.2434 2.11111 0.818115 2.54426 0.818115 3.07769V5.22224H11.1818V3.06691C11.1818 2.53349 10.7565 2.10033 10.2327 2.10033L9.06558 2.0999V3.12203C9.20749 3.25527 9.3055 3.44407 9.3055 3.65545C9.3055 4.05563 8.98931 4.37767 8.59641 4.37767C8.2035 4.37767 7.88731 4.05563 7.88731 3.65545C7.88731 3.44452 7.97467 3.25527 8.12723 3.12203V2.11117H3.88381V3.13331C4.02571 3.26655 4.12372 3.45535 4.12372 3.67757C4.12372 4.07775 3.80753 4.3998 3.41463 4.3998C3.02173 4.3998 2.70554 4.07775 2.70554 3.67757C2.70554 3.46664 2.7929 3.2774 2.93481 3.14415L2.93438 2.11116L1.76712 2.11111ZM0.818115 5.71089V10.9887C0.818115 11.5221 1.2434 11.9552 1.76712 11.9552H10.2434C10.7671 11.9552 11.1924 11.5221 11.1924 10.9887L11.1928 5.71089H0.818115Z" fill="black"/>
</g>
</svg>
