<svg width="124" height="155" viewBox="0 0 124 155" fill="none" xmlns="http://www.w3.org/2000/svg">
<g id="noun-calendar-6277879 1">
<path id="Vector" d="M116.25 13.0721L110.928 7.75L99.2454 19.4325H85.2308V9.3084H77.7035V19.4325H46.2965V9.3084H38.7692V19.4325H14.3512V104.327L7.75 110.928L13.0721 116.25L116.25 13.0721ZM91.718 26.9599L75.6084 43.0695H21.8785V26.9599H91.718ZM21.8785 50.5968H68.0811L21.8785 96.7994V50.5968Z" fill="#189297" fill-opacity="0.56"/>
<path id="Vector_2" d="M30.6113 114.692H109.649V35.6542H102.121V43.0695H94.7061V50.5968H102.121V107.164H30.6113V114.692Z" fill="#189297" fill-opacity="0.56"/>
<path id="Vector_3" d="M81.5426 66.7744C83.621 66.7744 85.3062 65.0892 85.3062 63.0108C85.3062 60.9323 83.621 59.2471 81.5426 59.2471H81.504C79.4255 59.2471 77.7605 60.9323 77.7605 63.0108C77.7605 65.0892 79.4641 66.7744 81.5426 66.7744Z" fill="#189297" fill-opacity="0.56"/>
<path id="Vector_4" d="M42.6082 59.2471H42.5696C40.4912 59.2471 38.8262 60.9323 38.8262 63.0108C38.8262 65.0892 40.5298 66.7744 42.6082 66.7744C44.6867 66.7744 46.3719 65.0892 46.3719 63.0108C46.3719 60.9323 44.6867 59.2471 42.6082 59.2471Z" fill="#189297" fill-opacity="0.56"/>
<path id="Vector_5" d="M62.0753 82.636C64.1538 82.636 65.839 80.9507 65.839 78.8723C65.839 76.7938 64.1538 75.1086 62.0753 75.1086H62.0367C59.9582 75.1086 58.2932 76.7938 58.2932 78.8723C58.2932 80.9507 59.9968 82.636 62.0753 82.636Z" fill="#189297" fill-opacity="0.56"/>
<path id="Vector_6" d="M81.5426 82.636C83.621 82.636 85.3062 80.9507 85.3062 78.8723C85.3062 76.7938 83.621 75.1086 81.5426 75.1086H81.504C79.4255 75.1086 77.7605 76.7938 77.7605 78.8723C77.7605 80.9507 79.4641 82.636 81.5426 82.636Z" fill="#189297" fill-opacity="0.56"/>
<path id="Vector_7" d="M62.0753 98.4975C64.1538 98.4975 65.839 96.8123 65.839 94.7338C65.839 92.6553 64.1538 90.9701 62.0753 90.9701H62.0367C59.9582 90.9701 58.2932 92.6553 58.2932 94.7338C58.2932 96.8123 59.9968 98.4975 62.0753 98.4975Z" fill="#189297" fill-opacity="0.56"/>
<path id="Vector_8" d="M81.5426 98.4975C83.621 98.4975 85.3062 96.8123 85.3062 94.7338C85.3062 92.6553 83.621 90.9701 81.5426 90.9701H81.504C79.4255 90.9701 77.7605 92.6553 77.7605 94.7338C77.7605 96.8123 79.4641 98.4975 81.5426 98.4975Z" fill="#189297" fill-opacity="0.56"/>
<path id="Vector_9" d="M46.3719 94.7338C46.3719 92.6553 44.6867 90.9701 42.6082 90.9701H42.5696C40.4912 90.9701 38.8262 92.6553 38.8262 94.7338C38.8262 96.8123 40.5298 98.4975 42.6082 98.4975C44.6867 98.4975 46.3719 96.8123 46.3719 94.7338Z" fill="#189297" fill-opacity="0.56"/>
</g>
</svg>
