<svg width="26" height="32" viewBox="0 0 26 32" fill="none" xmlns="http://www.w3.org/2000/svg">
<g id="noun-primary-care-6769325 1">
<path id="Vector" d="M24.1711 19.0415C23.6366 20.1527 21.44 21.8035 19.8353 23.0091C19.4457 23.3017 19.1096 23.5544 18.8557 23.7563C18.7984 23.8017 18.7283 23.8248 18.659 23.8248C18.5888 23.8248 18.5196 23.8017 18.4624 23.7563C18.2075 23.5535 17.8668 23.297 17.4726 23.0007C16.6462 22.3785 15.6167 21.6044 14.7617 20.8563C14.4109 20.5479 14.1126 20.2646 13.8744 20.0137C13.7535 19.8868 13.759 19.685 13.8855 19.5646C14.012 19.4433 14.2124 19.4489 14.3333 19.5757C14.5577 19.8128 14.842 20.0822 15.1781 20.3776C16.0156 21.1109 17.034 21.8766 17.8519 22.4924C18.1566 22.722 18.4298 22.9266 18.6579 23.1044C18.8841 22.9294 19.1537 22.7266 19.4538 22.5007C20.9181 21.3998 23.1314 19.7369 23.5984 18.7655C24.2438 17.4238 23.9752 15.8182 22.9291 14.7683C21.5792 13.4146 19.4325 14.41 18.8073 14.748C18.7141 14.7989 18.6014 14.7989 18.5073 14.748C17.8822 14.41 15.7373 13.4146 14.3865 14.7693C13.6719 15.4859 13.3053 16.4832 13.381 17.5035C13.394 17.6785 13.2629 17.8313 13.0884 17.8442C12.9139 17.8572 12.7615 17.7257 12.7486 17.5507C12.659 16.3452 13.093 15.1682 13.9378 14.3201C14.5619 13.6942 15.3698 13.3979 16.3383 13.4423C17.2376 13.4831 18.0722 13.8118 18.6567 14.1099C19.2411 13.8118 20.0767 13.4831 20.976 13.4423C21.9446 13.3979 22.7524 13.6942 23.3765 14.3201C24.6147 15.5599 24.9332 17.4571 24.1706 19.0414L24.1711 19.0415ZM17.0968 18.9786H13.0297C12.1701 18.9786 11.4702 19.6795 11.4702 20.5406L11.473 23.3535C11.4739 23.9378 11.2458 24.4887 10.8313 24.9045C10.4158 25.3221 9.86462 25.5517 9.28016 25.5517C8.07157 25.5517 7.08735 24.5656 7.08735 23.3536V19.3803C5.99324 19.2711 5.1355 18.3415 5.1355 17.2155V16.9674C2.96023 16.0998 1.41821 13.9674 1.41821 11.4812V6.10895C1.41821 4.89136 2.40338 3.90061 3.61658 3.89599C3.75877 3.32006 4.27859 2.89136 4.89628 2.89136C5.62199 2.89136 6.2129 3.48487 6.2129 4.21357C6.2129 4.94135 5.62199 5.53394 4.89628 5.53394C4.27859 5.53394 3.7597 5.10616 3.61658 4.53116C2.75331 4.53579 2.0516 5.24134 2.0516 6.10892V10.0449H3.51225C3.68676 10.0449 3.82893 10.1875 3.82893 10.3625V11.4801C3.82893 13.4014 5.38747 14.9633 7.30419 14.9633C9.22003 14.9633 10.7794 13.4004 10.7794 11.4801V10.3625C10.7794 10.1875 10.9216 10.0449 11.0961 10.0449H12.5568L12.5559 6.10797C12.5559 5.24132 11.8541 4.53575 10.9909 4.53206C10.8487 5.10706 10.3289 5.53484 9.71117 5.53484C8.98546 5.53484 8.39456 4.94225 8.39456 4.21447C8.39456 3.48578 8.98546 2.89226 9.71117 2.89226C10.3289 2.89226 10.8487 3.32096 10.9909 3.89689C12.2041 3.90152 13.1892 4.89226 13.1892 6.10892V11.4821C13.1892 13.9681 11.6473 16.1005 9.47195 16.9683V17.2165C9.47195 18.2729 8.71762 19.1563 7.72045 19.3516V23.3554C7.72045 24.2165 8.4203 24.9175 9.2799 24.9175C9.69538 24.9175 10.0869 24.7536 10.3823 24.4573C10.6769 24.161 10.8394 23.7702 10.8384 23.3554L10.8357 20.5416C10.8357 19.3295 11.819 18.3434 13.0285 18.3434H17.0835C17.2193 17.5953 17.8729 17.0268 18.6578 17.0268C19.5404 17.0268 20.2597 17.7462 20.2597 18.6314C20.2597 19.5166 19.5413 20.2378 18.6578 20.2378C17.8951 20.2369 17.2553 19.6971 17.0965 18.9786H17.0968ZM10.3973 4.21379C10.3973 3.83507 10.0898 3.52676 9.71221 3.52676C9.33549 3.52676 9.02898 3.8351 9.02898 4.21379C9.02898 4.59158 9.33552 4.89897 9.71221 4.89897C10.0898 4.89989 10.3973 4.59155 10.3973 4.21379ZM4.21118 4.21379C4.21118 4.59158 4.51864 4.89897 4.89625 4.89897C5.27297 4.89897 5.57948 4.59155 5.57948 4.21379C5.57948 3.83507 5.27295 3.52676 4.89625 3.52676C4.51861 3.52768 4.21118 3.8351 4.21118 4.21379ZM5.53519 16.4397C5.55089 16.4443 5.56658 16.4489 5.58135 16.4554C6.12149 16.6443 6.70132 16.7471 7.30423 16.7471C7.90715 16.7471 8.48697 16.6443 9.02711 16.4554C9.04188 16.4489 9.05758 16.4434 9.07328 16.4397C11.1017 15.7101 12.5568 13.7628 12.5568 11.4813V10.6813H11.4128V11.4813C11.4128 12.5758 10.9835 13.6082 10.2043 14.3898C9.42498 15.1714 8.39553 15.6009 7.30407 15.6009C5.03831 15.6009 3.19536 13.7527 3.19536 11.4814V10.6814H2.05141V11.4814C2.05141 13.7629 3.50651 15.7102 5.53493 16.4398L5.53519 16.4397ZM7.30423 18.7554C8.15089 18.7554 8.83875 18.0647 8.83875 17.2147V17.1776C8.34941 17.31 7.83513 17.3813 7.30423 17.3813C6.77333 17.3813 6.25905 17.31 5.76971 17.1776V17.2147C5.76879 18.0647 6.45758 18.7554 7.30423 18.7554ZM17.6922 18.6313C17.6922 19.1665 18.1261 19.6026 18.6589 19.6026C19.1925 19.6026 19.6274 19.1675 19.6274 18.6313C19.6274 18.0962 19.1925 17.6619 18.6589 17.6619C18.1261 17.6619 17.6922 18.0962 17.6922 18.6313Z" fill="black"/>
</g>
</svg>
