<svg width="14" height="18" viewBox="0 0 14 18" fill="none" xmlns="http://www.w3.org/2000/svg">
<g id="noun-dashboard-4994936 1">
<g id="Group">
<path id="Vector" d="M1.99553 0.149414H4.87004C5.26778 0.149414 5.62898 0.3166 5.89065 0.585738C6.15231 0.854877 6.31485 1.2264 6.31485 1.63551V3.70524C6.31485 4.11435 6.15231 4.48587 5.89065 4.75501C5.62898 5.02415 5.26778 5.19134 4.87004 5.19134H1.99553C1.59778 5.19134 1.23658 5.02415 0.974917 4.75501C0.713255 4.48587 0.550713 4.11435 0.550713 3.70524V1.63551C0.550713 1.2264 0.713255 0.854877 0.974917 0.585738C1.23658 0.3166 1.59778 0.149414 1.99553 0.149414ZM9.12972 7.37987H12.0042C12.2243 7.37987 12.4251 7.28699 12.5708 7.13708C12.7161 6.98718 12.8069 6.78111 12.8069 6.55431V1.63551C12.8069 1.40871 12.7166 1.20264 12.5708 1.05274C12.4255 0.903262 12.2247 0.809949 12.0042 0.809949H9.12972C8.90964 0.809949 8.70887 0.90283 8.56355 1.05274C8.41781 1.20221 8.32751 1.40871 8.32751 1.63551V6.55431C8.32751 6.78111 8.41781 6.98718 8.56355 7.13708C8.70887 7.28656 8.90964 7.37987 9.12972 7.37987ZM12.0042 8.04084H9.12972C8.73198 8.04084 8.37077 7.87365 8.10911 7.60451C7.84745 7.33537 7.6849 6.96385 7.6849 6.55474V1.63594C7.6849 1.22683 7.84745 0.855309 8.10911 0.585738C8.37077 0.3166 8.73198 0.149414 9.12972 0.149414H12.0042C12.402 0.149414 12.7632 0.3166 13.0248 0.585738C13.2865 0.854877 13.449 1.22683 13.449 1.63594V6.55474C13.449 6.96385 13.2865 7.33537 13.0248 7.60451C12.7632 7.87365 12.402 8.04084 12.0042 8.04084ZM9.12972 13.5891H12.0042C12.2247 13.5891 12.4251 13.4962 12.5708 13.3463C12.7161 13.1968 12.8069 12.9903 12.8069 12.7639V10.6942C12.8069 10.4678 12.7166 10.2613 12.5708 10.1114C12.4255 9.96196 12.2247 9.86908 12.0042 9.86908H9.12972C8.90964 9.86908 8.70887 9.96196 8.56355 10.1114C8.41781 10.2613 8.32751 10.4674 8.32751 10.6942V12.7639C8.32751 12.9903 8.41781 13.1968 8.56355 13.3463C8.70887 13.4958 8.90964 13.5891 9.12972 13.5891ZM12.0042 14.25H9.12972C8.73198 14.25 8.37077 14.0828 8.10911 13.8137C7.84745 13.5446 7.6849 13.173 7.6849 12.7639V10.6942C7.6849 10.2851 7.84745 9.91358 8.10911 9.64444C8.37077 9.3753 8.73198 9.20811 9.12972 9.20811H12.0042C12.402 9.20811 12.7632 9.3753 13.0248 9.64444C13.2865 9.91358 13.449 10.2851 13.449 10.6942V12.7639C13.449 13.173 13.2865 13.5446 13.0248 13.8137C12.7632 14.0828 12.402 14.25 12.0042 14.25ZM1.99511 6.35861H4.86962C5.26736 6.35861 5.62856 6.5258 5.89023 6.79494C6.15189 7.06407 6.31443 7.4356 6.31443 7.84471V12.7635C6.31443 13.1726 6.15189 13.5441 5.89023 13.8137C5.62856 14.0828 5.26736 14.25 4.86962 14.25H1.99511C1.59736 14.25 1.23616 14.0828 0.974497 13.8137C0.712835 13.5446 0.550293 13.1726 0.550293 12.7635V7.84471C0.550293 7.4356 0.712835 7.06407 0.974497 6.79494C1.23616 6.5258 1.59736 6.35861 1.99511 6.35861ZM4.86962 7.01958H1.99511C1.77461 7.01958 1.57426 7.11246 1.42852 7.26236C1.2832 7.41227 1.1929 7.61834 1.1929 7.84514V12.7639C1.1929 12.9907 1.2832 13.1968 1.42894 13.3467C1.57426 13.4962 1.77503 13.5895 1.99511 13.5895H4.86962C5.0897 13.5895 5.29046 13.4966 5.43578 13.3467C5.58152 13.1972 5.67182 12.9907 5.67182 12.7639V7.84514C5.67182 7.61877 5.58152 7.41227 5.43578 7.26236C5.29046 7.11289 5.0897 7.01958 4.86962 7.01958ZM4.86962 0.810381H1.99511C1.77461 0.810381 1.57426 0.903261 1.42852 1.05317C1.2832 1.20264 1.1929 1.40914 1.1929 1.63551V3.70524C1.1929 3.93204 1.2832 4.13811 1.42852 4.28802C1.57384 4.43749 1.77461 4.53037 1.99511 4.53037H4.86962C5.0897 4.53037 5.29046 4.43749 5.4362 4.28802C5.58152 4.13811 5.67182 3.93204 5.67182 3.70524V1.63551C5.67182 1.40914 5.58152 1.20264 5.4362 1.05317C5.29046 0.903693 5.09012 0.810381 4.86962 0.810381Z" fill="#35375F"/>
</g>
</g>
</svg>
