<svg width="23" height="28" viewBox="0 0 23 28" fill="none" xmlns="http://www.w3.org/2000/svg">
<g id="noun-files-7393042 1">
<path id="Vector" d="M18.7766 17.5996V19.7603V19.7595C18.7766 19.8316 18.7186 19.8891 18.6459 19.8891H16.4529C16.3811 19.8891 16.3223 19.8316 16.3223 19.7595C16.3223 19.6882 16.3811 19.6299 16.4529 19.6299H18.5153V17.5996C18.5153 17.5274 18.5741 17.4699 18.6459 17.4699C18.7186 17.4699 18.7766 17.5274 18.7766 17.5996ZM19.8204 13.9067C19.8326 13.9877 19.84 14.0695 19.84 14.1513V19.4185C19.8384 20.2667 19.1457 20.9537 18.2914 20.9546H4.70866C3.85434 20.9537 3.16173 20.2667 3.1601 19.4185V14.1513C3.1601 14.0695 3.16745 13.9877 3.1797 13.9067C3.19032 13.8435 3.24586 13.7973 3.31038 13.7965H6.68678C7.18582 13.79 7.64239 14.0752 7.85148 14.5248L8.30232 15.54C8.46812 15.8973 8.82994 16.1233 9.22608 16.1168H13.7738C14.1683 16.1241 14.5301 15.8997 14.6976 15.5448L15.1484 14.5297V14.5289C15.3575 14.0792 15.8141 13.794 16.3131 13.8013H19.6895C19.7524 13.8005 19.8073 13.8451 19.8204 13.9067ZM19.5786 14.1513V14.0566H16.3116V14.0557C15.9155 14.0485 15.552 14.2745 15.3854 14.631L14.9345 15.6445V15.6437C14.7271 16.0942 14.2705 16.3793 13.7715 16.372H9.22625C8.72721 16.3793 8.27146 16.0942 8.06318 15.6437L7.61234 14.6302V14.631C7.44572 14.2745 7.08309 14.0484 6.68695 14.0557H3.4199V14.1505V19.4183C3.42072 20.1231 3.99653 20.6943 4.70711 20.6951H18.2915C19.0013 20.6943 19.5771 20.1231 19.5787 19.4183L19.5786 14.1513ZM14.8038 17.8457C14.8038 18.2678 14.4592 18.6105 14.0328 18.6105H8.96717C8.54081 18.6105 8.19614 18.2678 8.19614 17.8457C8.19614 17.4228 8.54081 17.0809 8.96717 17.0809H14.0328C14.2378 17.0801 14.4338 17.1603 14.5792 17.3037C14.7238 17.4479 14.8047 17.6423 14.8038 17.8457ZM14.549 17.8457C14.549 17.5662 14.3211 17.3401 14.0393 17.3401H8.96721C8.68542 17.3401 8.45755 17.5662 8.45755 17.8457C8.45755 18.1244 8.68542 18.3512 8.96721 18.3512H14.0329C14.1693 18.3529 14.3007 18.3002 14.3979 18.2054C14.4951 18.1098 14.549 17.981 14.549 17.8457ZM14.9631 13.3087V9.41976H13.2838C12.7334 9.41814 12.2874 8.97578 12.2866 8.42972V6.77289H6.93679C6.53086 6.7737 6.20171 7.1002 6.20089 7.50286V13.0923C6.20089 13.1636 6.14209 13.2219 6.07021 13.2219C5.99834 13.2219 5.93953 13.1636 5.93953 13.0923V7.50286C5.94035 6.9568 6.38629 6.51444 6.93679 6.51363H12.4695C12.5047 6.51444 12.5381 6.52821 12.5627 6.55252L15.1878 9.20339C15.2115 9.2277 15.2245 9.26011 15.2245 9.29413V13.3085C15.2245 13.3798 15.1657 13.4381 15.0939 13.4381C15.022 13.4381 14.9631 13.3799 14.9631 13.3087ZM13.2838 9.16859H14.7826L12.5478 6.90889V8.43852C12.5478 8.84199 12.8771 9.16859 13.2838 9.16859ZM11.1578 8.35841H7.55748C7.4856 8.35841 7.42679 8.41675 7.42679 8.48804C7.42679 8.56015 7.4856 8.61767 7.55748 8.61767H11.1578C11.2305 8.61767 11.2885 8.56015 11.2885 8.48804C11.2885 8.41675 11.2305 8.35841 11.1578 8.35841ZM7.55748 9.35495H9.15016C9.22204 9.35495 9.28084 9.29661 9.28084 9.22532C9.28084 9.15321 9.22204 9.09569 9.15016 9.09569H7.55748C7.4856 9.09569 7.42679 9.15321 7.42679 9.22532C7.42679 9.29661 7.4856 9.35495 7.55748 9.35495ZM11.2818 9.96178C11.2818 9.89048 11.2238 9.83215 11.1511 9.83215H7.55727C7.48539 9.83215 7.42658 9.89048 7.42658 9.96178C7.42658 10.0331 7.48539 10.0914 7.55727 10.0914H11.1576C11.2278 10.0882 11.2818 10.0306 11.2818 9.96178ZM7.55748 10.5686C7.4856 10.5686 7.42679 10.6269 7.42679 10.6982C7.42679 10.7703 7.4856 10.8279 7.55748 10.8279H9.15016C9.22204 10.8279 9.28084 10.7703 9.28084 10.6982C9.28084 10.6269 9.22204 10.5686 9.15016 10.5686H7.55748ZM16.7991 12.876V6.84834H15.1198C14.8536 6.85077 14.5979 6.74788 14.4084 6.56154C14.2198 6.37601 14.1136 6.12323 14.1136 5.85911V4.19338H8.77277C8.36685 4.19338 8.03688 4.52069 8.03688 4.92335V5.7076C8.03688 5.77971 7.97807 5.83723 7.9062 5.83723C7.83432 5.83723 7.77552 5.77971 7.77552 5.7076V4.92335C7.77633 4.37729 8.22228 3.93493 8.77277 3.93412H14.303C14.3381 3.93412 14.3716 3.94871 14.3969 3.97301L17.0235 6.62804C17.0464 6.65315 17.0595 6.68556 17.0603 6.71878V12.8763C17.0603 12.9484 17.0015 13.0059 16.9296 13.0059C16.8577 13.0059 16.7989 12.9484 16.7989 12.8763L16.7991 12.876ZM15.1198 6.59137H16.6186L14.3838 4.32938V5.85901C14.383 6.05345 14.4606 6.23898 14.5986 6.37672C14.7367 6.51445 14.9238 6.59137 15.1198 6.59137Z" fill="black"/>
</g>
</svg>
