<svg width="9" height="10" viewBox="0 0 9 10" fill="none" xmlns="http://www.w3.org/2000/svg">
<g id="Group">
<path id="Vector" fill-rule="evenodd" clip-rule="evenodd" d="M6.89559 5.21598V8.58C6.89559 8.94465 6.58794 9.24 6.20809 9.24H0.71875C0.338906 9.24 0.03125 8.94465 0.03125 8.58V3.31024C0.03125 2.94559 0.338906 2.65024 0.71875 2.65024H4.22122L1.96106 4.82031C1.79022 4.98399 1.68503 5.19981 1.66303 5.43048L1.54135 6.71385C1.51385 7.00656 1.62281 7.29565 1.83937 7.50355C2.05559 7.71145 2.35706 7.81605 2.66197 7.78932L3.99882 7.6725C4.2391 7.65171 4.46391 7.5504 4.63441 7.38672L6.89559 5.21598ZM2.99644 4.75959L6.0895 1.79025L7.79072 3.42342L4.69766 6.39277C4.65847 6.09016 4.56806 5.76444 4.1095 5.32422C3.65094 4.884 3.31166 4.79689 2.99644 4.75959ZM4.01944 6.99798C3.99263 7.00689 3.96478 7.01283 3.93625 7.01547L2.59975 7.1323C2.498 7.14088 2.39762 7.10623 2.32544 7.03692C2.25325 6.96763 2.21681 6.87126 2.22609 6.77358L2.34778 5.49021C2.35053 5.46282 2.35638 5.43609 2.366 5.41068C2.50178 5.39484 2.62725 5.38593 2.70528 5.39385C2.96791 5.42025 3.23466 5.41761 3.62344 5.79084C4.01222 6.16407 4.00947 6.42015 4.03697 6.67227C4.04488 6.74718 4.03594 6.86763 4.01944 6.99798ZM6.57556 1.32363L7.06541 0.853383C7.19431 0.729633 7.36928 0.660004 7.55147 0.660004C7.734 0.660004 7.90863 0.729633 8.03753 0.853383L8.76663 1.55298C8.89553 1.67673 8.96806 1.8447 8.96806 2.01993C8.96806 2.19483 8.89553 2.3628 8.76663 2.48655L8.27678 2.9568L6.57556 1.32363Z" fill="black"/>
</g>
</svg>
