<svg width="19" height="22" viewBox="0 0 19 22" fill="none" xmlns="http://www.w3.org/2000/svg">
<g id="noun-heart-rate-7356004 2">
<path id="Vector" d="M5.70006 7.66666C5.70006 8.34814 4.6637 8.34814 4.6637 7.66666C4.6637 6.98518 5.70006 6.98518 5.70006 7.66666Z" fill="#FF7F50"/>
<path id="Vector_2" d="M5.18177 6.47408C4.51514 6.47408 3.97268 7.00914 3.97268 7.66667C3.97268 8.3242 4.51514 8.85926 5.18177 8.85926C5.72964 8.85926 6.1925 8.49988 6.34092 8.00741H9.49993C9.6315 8.00741 9.75025 7.9342 9.80896 7.8184L10.2219 7.00383L10.8885 10.2887C10.9195 10.4405 11.0491 10.5529 11.2063 10.5629H11.2272C11.3756 10.5629 11.5072 10.4691 11.5551 10.3293L12.2406 8.29682L12.7102 8.75868C12.8452 8.89311 13.0624 8.89311 13.1974 8.75868L13.9612 8.00731H17.1013C16.8369 8.90375 16.2829 9.67508 15.5448 10.2221L14.949 10.7266C14.5901 10.6208 14.2116 10.5629 13.8175 10.5629C11.6273 10.5629 9.84478 12.3211 9.84478 14.4814C9.84478 14.6604 9.85827 14.8374 9.88121 15.0098L9.49933 15.3332L3.45457 10.2221C2.40606 9.44547 1.72729 8.20834 1.72729 6.81471C1.72729 4.46207 3.66029 2.55545 6.04548 2.55545C7.45833 2.55545 8.71256 3.22495 9.50002 4.25915C10.2874 3.22495 11.5417 2.55545 12.9546 2.55545C15.3398 2.55545 17.2728 4.46207 17.2728 6.81471C17.2728 6.9884 17.2626 7.15877 17.2417 7.32582H13.8183C13.7265 7.32582 13.6388 7.36176 13.5747 7.42631L12.9546 8.03591L12.3346 7.42631C12.2502 7.34312 12.1274 7.30719 12.0114 7.33447C11.8953 7.36176 11.8009 7.44694 11.7624 7.55941L11.3097 8.89709L10.7018 5.89704C10.6721 5.75396 10.5547 5.64481 10.4096 5.62619C10.2625 5.60755 10.1195 5.68076 10.054 5.81186L9.28553 7.32655H6.34036C6.19192 6.83408 5.72906 6.4747 5.1812 6.4747L5.18177 6.47408Z" fill="#FF7F50"/>
<path id="Vector_3" d="M14.6819 13.9704H15.2V14.9926H14.6819C14.4916 14.9926 14.3364 15.1457 14.3364 15.3333V15.8444H13.3V15.3333C13.3 15.1456 13.1449 14.9926 12.9546 14.9926H12.4364V13.9704H12.9546C13.1449 13.9704 13.3 13.8173 13.3 13.6296V13.1185H14.3364V13.6296C14.3364 13.8173 14.4916 13.9704 14.6819 13.9704Z" fill="#FF7F50"/>
<path id="Vector_4" d="M13.8182 11.0741C11.9094 11.0741 10.3636 12.5988 10.3636 14.4815C10.3636 16.3642 11.9094 17.8889 13.8182 17.8889C15.727 17.8889 17.2727 16.3642 17.2727 14.4815C17.2727 12.5988 15.727 11.0741 13.8182 11.0741ZM15.8909 15.3333C15.8909 15.521 15.7357 15.6741 15.5455 15.6741H15.0273V16.1852C15.0273 16.3729 14.8721 16.5259 14.6818 16.5259H12.9546C12.7643 16.5259 12.6091 16.3729 12.6091 16.1852V15.6741H12.0909C11.9006 15.6741 11.7455 15.521 11.7455 15.3333V13.6296C11.7455 13.442 11.9007 13.2889 12.0909 13.2889H12.6091V12.7778C12.6091 12.5901 12.7643 12.437 12.9546 12.437H14.6818C14.8721 12.437 15.0273 12.5901 15.0273 12.7778V13.2889H15.5455C15.7357 13.2889 15.8909 13.442 15.8909 13.6296V15.3333Z" fill="#FF7F50"/>
</g>
</svg>
