<svg width="23" height="28" viewBox="0 0 23 28" fill="none" xmlns="http://www.w3.org/2000/svg">
<g id="noun-files-7393042 1">
<path id="Vector" d="M18.7766 17.5995V19.7603V19.7595C18.7766 19.8316 18.7186 19.8891 18.6459 19.8891H16.453C16.3811 19.8891 16.3223 19.8316 16.3223 19.7595C16.3223 19.6882 16.3811 19.6298 16.453 19.6298H18.5153V17.5995C18.5153 17.5274 18.5741 17.4699 18.646 17.4699C18.7187 17.4699 18.7766 17.5274 18.7766 17.5995ZM19.8204 13.9066C19.8327 13.9876 19.84 14.0695 19.84 14.1513V19.4184C19.8384 20.2667 19.1458 20.9537 18.2915 20.9545H4.70873C3.8544 20.9537 3.16179 20.2667 3.16016 19.4184V14.1513C3.16016 14.0695 3.16751 13.9876 3.17976 13.9066C3.19038 13.8434 3.24592 13.7973 3.31044 13.7964H6.68684C7.18588 13.79 7.64245 14.0752 7.85154 14.5248L8.30238 15.5399C8.46818 15.8972 8.83 16.1233 9.22614 16.1168H13.7739C14.1684 16.1241 14.5302 15.8997 14.6976 15.5448L15.1485 14.5296V14.5288C15.3576 14.0792 15.8141 13.794 16.3132 13.8013H19.6896C19.7525 13.8005 19.8074 13.8451 19.8204 13.9066ZM19.5787 14.1513V14.0565H16.3117V14.0557C15.9155 14.0484 15.5521 14.2745 15.3854 14.6309L14.9346 15.6445V15.6437C14.7271 16.0941 14.2706 16.3793 13.7715 16.372H9.22631C8.72727 16.3793 8.27152 16.0941 8.06324 15.6437L7.6124 14.6301V14.6309C7.44578 14.2744 7.08315 14.0484 6.68701 14.0557H3.41996V14.1505V19.4182C3.42078 20.1231 3.99659 20.6943 4.70717 20.6951H18.2916C19.0014 20.6943 19.5772 20.1231 19.5788 19.4182L19.5787 14.1513ZM14.8039 17.8456C14.8039 18.2678 14.4592 18.6105 14.0329 18.6105H8.96723C8.54087 18.6105 8.19621 18.2678 8.19621 17.8456C8.19621 17.4227 8.54087 17.0808 8.96723 17.0808H14.0329C14.2379 17.08 14.4339 17.1602 14.5793 17.3036C14.7239 17.4478 14.8047 17.6423 14.8039 17.8456ZM14.5491 17.8456C14.5491 17.5661 14.3212 17.3401 14.0394 17.3401H8.96727C8.68548 17.3401 8.45761 17.5661 8.45761 17.8456C8.45761 18.1244 8.68548 18.3512 8.96727 18.3512H14.0329C14.1693 18.3528 14.3008 18.3002 14.398 18.2054C14.4952 18.1098 14.5491 17.981 14.5491 17.8456ZM14.9632 13.3086V9.41972H13.2839C12.7334 9.4181 12.2875 8.97574 12.2867 8.42968V6.77285H6.93685C6.53092 6.77366 6.20177 7.10016 6.20095 7.50282V13.0922C6.20095 13.1635 6.14215 13.2219 6.07027 13.2219C5.9984 13.2219 5.93959 13.1635 5.93959 13.0922V7.50282C5.94041 6.95675 6.38636 6.5144 6.93685 6.51359H12.4696C12.5047 6.5144 12.5382 6.52817 12.5627 6.55248L15.1879 9.20335C15.2115 9.22766 15.2246 9.26006 15.2246 9.29409V13.3085C15.2246 13.3798 15.1658 13.4381 15.0939 13.4381C15.022 13.4381 14.9632 13.3799 14.9632 13.3086ZM13.2839 9.16855H14.7827L12.5479 6.90884V8.43847C12.5479 8.84194 12.8772 9.16855 13.2839 9.16855ZM11.1579 8.35837H7.55754C7.48566 8.35837 7.42686 8.41671 7.42686 8.488C7.42686 8.56011 7.48566 8.61763 7.55754 8.61763H11.1579C11.2306 8.61763 11.2886 8.56011 11.2886 8.488C11.2886 8.41671 11.2306 8.35837 11.1579 8.35837ZM7.55754 9.3549H9.15022C9.2221 9.3549 9.28091 9.29657 9.28091 9.22527C9.28091 9.15317 9.2221 9.09564 9.15022 9.09564H7.55754C7.48566 9.09564 7.42686 9.15317 7.42686 9.22527C7.42686 9.29657 7.48566 9.3549 7.55754 9.3549ZM11.2819 9.96174C11.2819 9.89044 11.2239 9.83211 11.1512 9.83211H7.55733C7.48545 9.83211 7.42665 9.89044 7.42665 9.96174C7.42665 10.033 7.48545 10.0914 7.55733 10.0914H11.1577C11.2279 10.0881 11.2819 10.0306 11.2819 9.96174ZM7.55754 10.5686C7.48566 10.5686 7.42686 10.6269 7.42686 10.6982C7.42686 10.7703 7.48566 10.8278 7.55754 10.8278H9.15022C9.2221 10.8278 9.28091 10.7703 9.28091 10.6982C9.28091 10.6269 9.2221 10.5686 9.15022 10.5686H7.55754ZM16.7991 12.876V6.8483H15.1199C14.8536 6.85073 14.598 6.74784 14.4085 6.5615C14.2198 6.37597 14.1136 6.12318 14.1136 5.85907V4.19334H8.77284C8.36691 4.19334 8.03694 4.52065 8.03694 4.92331V5.70756C8.03694 5.77967 7.97813 5.83719 7.90626 5.83719C7.83438 5.83719 7.77558 5.77967 7.77558 5.70756V4.92331C7.77639 4.37725 8.22234 3.93489 8.77284 3.93408H14.3031C14.3382 3.93408 14.3717 3.94867 14.397 3.97297L17.0236 6.62799C17.0465 6.65311 17.0595 6.68552 17.0604 6.71873V12.8762C17.0604 12.9484 17.0016 13.0059 16.9297 13.0059C16.8578 13.0059 16.799 12.9484 16.799 12.8762L16.7991 12.876ZM15.1199 6.59132H16.6187L14.3839 4.32934V5.85897C14.3831 6.05341 14.4607 6.23894 14.5987 6.37668C14.7367 6.51441 14.9239 6.59132 15.1199 6.59132Z" fill="black"/>
</g>
</svg>
