<svg width="37" height="46" viewBox="0 0 37 46" fill="none" xmlns="http://www.w3.org/2000/svg">
<g id="noun-naira-323961 1">
<g id="Group">
<g id="Group_2">
<path id="Vector" d="M21.4601 19.872C21.6644 19.872 21.8301 19.7072 21.8301 19.504C21.8301 19.3008 21.6644 19.136 21.4601 19.136H20.3501V16.56C20.3501 16.3568 20.1844 16.192 19.9801 16.192C19.7757 16.192 19.6101 16.3568 19.6101 16.56V19.136H16.9714L15.1079 16.3559C15.0172 16.2209 14.8489 16.1602 14.6929 16.2078C14.5368 16.2547 14.4301 16.3979 14.4301 16.56V19.136H13.3201C13.1157 19.136 12.9501 19.3008 12.9501 19.504C12.9501 19.7072 13.1157 19.872 13.3201 19.872H14.4301V20.976H13.3201C13.1157 20.976 12.9501 21.1408 12.9501 21.344C12.9501 21.5472 13.1157 21.712 13.3201 21.712H14.4301V24.288C14.4301 24.4912 14.5957 24.656 14.8001 24.656C15.0044 24.656 15.1701 24.4912 15.1701 24.288V21.712H17.8087L19.6722 24.4921C19.7421 24.5963 19.8587 24.656 19.9801 24.656C20.0158 24.656 20.0518 24.651 20.0872 24.6402C20.2433 24.5933 20.3501 24.4501 20.3501 24.288V21.712H21.4601C21.6644 21.712 21.8301 21.5472 21.8301 21.344C21.8301 21.1408 21.6644 20.976 21.4601 20.976H20.3501V19.872H21.4601ZM15.1701 17.7754L16.0821 19.136H15.1701V17.7754ZM15.1701 20.976V19.872H16.5754L17.3154 20.976H15.1701ZM19.6101 23.0726L18.6981 21.712H19.6101V23.0726ZM19.6101 20.976H18.2048L17.4648 19.872H19.6101V20.976Z" fill="#1D1C1A"/>
<path id="Vector_2" d="M31.08 10.304H11.1C10.8957 10.304 10.73 10.4688 10.73 10.672V12.144H9.25003C9.0457 12.144 8.88003 12.3088 8.88003 12.512V13.984H7.40003C7.1957 13.984 7.03003 14.1488 7.03003 14.352V26.128C7.03003 26.3312 7.1957 26.496 7.40003 26.496H27.38C27.5844 26.496 27.75 26.3312 27.75 26.128V24.656H29.23C29.4344 24.656 29.6 24.4912 29.6 24.288V22.816H31.08C31.2844 22.816 31.45 22.6512 31.45 22.448V10.672C31.45 10.4688 31.2844 10.304 31.08 10.304ZM27.01 25.76H7.77003V14.72H27.01V25.76ZM28.86 23.92H27.75V14.352C27.75 14.1488 27.5844 13.984 27.38 13.984H9.62003V12.88H28.86V23.92ZM30.71 22.08H29.6V12.512C29.6 12.3088 29.4344 12.144 29.23 12.144H11.47V11.04H30.71V22.08Z" fill="#1D1C1A"/>
<path id="Vector_3" d="M25.1601 16.56H23.6801C23.4757 16.56 23.3101 16.7248 23.3101 16.928C23.3101 17.1312 23.4757 17.296 23.6801 17.296H25.1601C25.3644 17.296 25.5301 17.1312 25.5301 16.928C25.5301 16.7248 25.3644 16.56 25.1601 16.56Z" fill="#1D1C1A"/>
</g>
<path id="Vector_4" d="M11.1 23.184H9.62C9.41567 23.184 9.25 23.3488 9.25 23.552C9.25 23.7552 9.41567 23.92 9.62 23.92H11.1C11.3043 23.92 11.47 23.7552 11.47 23.552C11.47 23.3488 11.3043 23.184 11.1 23.184Z" fill="#1D1C1A"/>
</g>
</g>
</svg>
