<svg width="25" height="31" viewBox="0 0 25 31" fill="none" xmlns="http://www.w3.org/2000/svg">
<g id="noun-naira-6816498 1">
<g id="Group">
<path id="Vector" d="M9.82809 13.0697V13.4975H9.42943V14.6035H8.45014L7.77412 13.4975H6.50158V14.6035H5.59473V13.4975H5.20253V12.6348H5.59473V11.7518H5.20253V10.8927H5.59473V9.72H6.54457L7.25652 10.8927H8.19988C7.92134 10.2257 7.76589 9.49212 7.76589 8.72222C7.76589 8.37655 7.79887 8.03859 7.85834 7.71018C7.68933 7.69114 7.51857 7.67983 7.34425 7.67983C4.80683 7.684 2.75406 9.75815 2.74939 12.3223C2.7541 14.8867 4.80683 16.9607 7.34425 16.9649C9.27868 16.9613 10.9304 15.7547 11.6088 14.0453C10.9528 13.8329 10.3522 13.4973 9.82816 13.0696L9.82809 13.0697ZM8.31169 12.6348H8.5225V11.7518H7.77759L8.31169 12.6348ZM6.50149 12.6348H7.2464L6.70583 11.7518H6.50149V12.6348Z" fill="black"/>
<path id="Vector_2" d="M14.0791 9.03386H14.2899L14.2905 8.15091H13.5456L14.0791 9.03386ZM13.2294 4.07895C10.6913 4.08371 8.63858 6.15772 8.63391 8.72207C8.63862 11.2858 10.6913 13.3599 13.2294 13.3646C15.7668 13.3604 17.8196 11.2863 17.8242 8.72207C17.8201 6.15772 15.7673 4.08367 13.2294 4.07895ZM15.596 8.15089H15.1973V9.03384H15.596V9.89656H15.1973V11.0026H14.2181L13.542 9.89656H12.2695V11.0026H11.3626V9.89656H10.9704V9.03384H11.3626V8.15089H10.9704V7.29176H11.3626V6.11906H12.3125L13.0244 7.29176H14.2905V6.11906H15.1973V7.29176H15.596V8.15089ZM12.2696 8.15089V9.03384H13.0145L12.4739 8.15089H12.2696Z" fill="black"/>
</g>
</g>
</svg>
