<svg width="150" height="187" viewBox="0 0 150 187" fill="none" xmlns="http://www.w3.org/2000/svg">
<g id="noun-no-file-6495428 1">
<path id="Vector" d="M85.5233 37.517H110.461L83.6016 10.7291V35.6001C83.6016 36.6518 84.4688 37.517 85.5233 37.517Z" fill="#189297" fill-opacity="0.56"/>
<path id="Vector_2" d="M21.1172 139.572C21.5625 140.016 22.1719 140.25 22.7813 140.25C23.3672 140.25 23.9766 140.016 24.4219 139.572L128.883 35.3897C129.797 34.4781 129.797 33.0054 128.883 32.0704C127.969 31.1588 126.492 31.1588 125.578 32.0704L119.93 37.7038L115.43 42.1919L111.844 45.7681V42.1919H85.5234C81.8672 42.1919 78.9142 39.2467 78.9142 35.6V9.34998H42.0938C36.0938 9.34998 31.2422 14.1888 31.2422 20.1492V120.171C31.2422 121.877 31.6172 123.513 32.3906 125.009L21.1172 136.253C20.2031 137.164 20.2031 138.661 21.1172 139.572Z" fill="#189297" fill-opacity="0.56"/>
<path id="Vector_3" d="M46.6173 126.319L42.3047 130.62C42.6563 130.853 43.1016 130.994 43.5469 130.994H100.992C106.969 130.994 111.844 126.131 111.844 120.171V61.6399C111.844 61.5231 111.844 61.4062 111.82 61.2892L107.156 65.9408L46.6173 126.319Z" fill="#189297" fill-opacity="0.56"/>
</g>
</svg>
