<svg width="18" height="23" viewBox="0 0 18 23" fill="none" xmlns="http://www.w3.org/2000/svg">
<g id="noun-plus-2048207 1">
<g id="Group">
<path id="Vector" d="M9 4.60001C8.80117 4.60001 8.64 4.76477 8.64 4.96801V8.83201H4.86C4.66117 8.83201 4.5 8.99676 4.5 9.20001C4.5 9.40325 4.66117 9.56801 4.86 9.56801H8.64V13.432C8.64 13.6353 8.80117 13.8 9 13.8C9.19883 13.8 9.36 13.6353 9.36 13.432V9.56801H13.14C13.3388 9.56801 13.5 9.40325 13.5 9.20001C13.5 8.99676 13.3388 8.83201 13.14 8.83201H9.36V4.96801C9.36 4.76477 9.19883 4.60001 9 4.60001Z" fill="black"/>
</g>
</g>
</svg>
