<svg width="150" height="187" viewBox="0 0 150 187" fill="none" xmlns="http://www.w3.org/2000/svg">
<g id="noun-no-file-6495428 2">
<path id="Vector" d="M85.5233 37.5169H110.461L83.6016 10.729V35.6C83.6016 36.6518 84.4688 37.5169 85.5233 37.5169Z" fill="#DADADC"/>
<path id="Vector_2" d="M21.1172 139.572C21.5625 140.016 22.1719 140.25 22.7813 140.25C23.3672 140.25 23.9766 140.016 24.4219 139.572L128.883 35.3899C129.797 34.4782 129.797 33.0056 128.883 32.0705C127.969 31.1589 126.492 31.1589 125.578 32.0705L119.93 37.704L115.43 42.1921L111.844 45.7682V42.1921H85.5234C81.8672 42.1921 78.9142 39.2468 78.9142 35.6002V9.3501H42.0938C36.0938 9.3501 31.2422 14.1889 31.2422 20.1493V120.171C31.2422 121.877 31.6172 123.514 32.3906 125.01L21.1172 136.253C20.2031 137.164 20.2031 138.661 21.1172 139.572Z" fill="#DADADC"/>
<path id="Vector_3" d="M46.6173 126.318L42.3047 130.619C42.6563 130.853 43.1016 130.993 43.5469 130.993H100.992C106.969 130.993 111.844 126.131 111.844 120.171V61.6397C111.844 61.523 111.844 61.406 111.82 61.2891L107.156 65.9407L46.6173 126.318Z" fill="#DADADC"/>
</g>
</svg>
