<svg width="26" height="32" viewBox="0 0 26 32" fill="none" xmlns="http://www.w3.org/2000/svg">
<g id="noun-prescription-7394533 1">
<path id="Vector" d="M19.0817 7.53798C18.8278 7.28244 18.5739 7.02781 18.319 6.77316V7.53798H19.0817ZM14.9971 21.7889L12.5975 23.3722C12.8745 23.4315 13.182 23.4648 13.507 23.4648C14.1395 23.4648 14.7073 23.3389 15.1126 23.1352C15.469 22.9565 15.6897 22.7269 15.6897 22.4889C15.6897 22.2509 15.469 22.0204 15.1126 21.8426C15.0757 21.8241 15.0368 21.8056 14.9971 21.7889ZM12.0177 23.1898L14.4173 21.6065C14.1394 21.5472 13.8319 21.513 13.5078 21.513C12.8754 21.513 12.3076 21.6389 11.9022 21.8426C11.5458 22.0213 11.3252 22.2509 11.3252 22.4889C11.3252 22.7269 11.5458 22.9565 11.9022 23.1352C11.9392 23.1537 11.9779 23.1722 12.0176 23.1889L12.0177 23.1898ZM11.3253 23.3287V23.7019C11.3253 23.9398 11.5459 24.1695 11.9023 24.3482C12.3076 24.5519 12.8755 24.6778 13.5079 24.6778C14.1404 24.6778 14.7082 24.5519 15.1136 24.3482C15.4699 24.1695 15.6906 23.9398 15.6906 23.7019V23.3287C15.5835 23.412 15.4607 23.4889 15.3241 23.5574C14.8541 23.7926 14.2115 23.9389 13.5079 23.9389C12.9124 23.9389 12.2412 23.8333 11.6918 23.5574C11.5552 23.4889 11.4324 23.412 11.3253 23.3287ZM16.1634 22.8V23.7019C16.1634 24.1333 15.8421 24.5111 15.3232 24.7704C14.8532 25.0056 14.2106 25.1519 13.5071 25.1519C12.8035 25.1519 12.1609 25.0056 11.6909 24.7704C11.173 24.5102 10.8507 24.1333 10.8507 23.7019V22.8111L7.31001 22.8185C7.17982 22.8185 7.07457 22.713 7.07457 22.5824V22.0463H6.52521C6.39503 22.0463 6.28885 21.9398 6.28885 21.8093V21.3833L5.13381 21.525C5.00455 21.5398 4.88636 21.4472 4.87159 21.3176L2.89389 5.05473C2.87911 4.9251 2.97144 4.80657 3.1007 4.79176L15.35 3.29361C15.4793 3.27787 15.5975 3.37047 15.6132 3.50009L15.819 5.18898H18.8677C18.9979 5.18898 19.104 5.29547 19.104 5.42602V6.88899L19.8196 7.60657C19.8694 7.66027 19.8888 7.71305 19.8888 7.78065V15.7844C20.453 15.6409 21.0983 15.578 21.6782 15.6974C22.1407 15.7928 22.6255 16.0224 22.7649 16.5122L23.0779 17.6835C23.1887 18.1002 22.9763 18.5483 22.5424 18.9335C22.15 19.2817 21.5674 19.59 20.8869 19.7724C20.5435 19.8641 20.2055 19.9168 19.8888 19.9326V20.0567C20.1649 20.1159 20.4539 20.2076 20.7087 20.3354C21.1214 20.5418 21.5489 20.9011 21.5489 21.4039V22.6168C21.5489 23.0483 21.2276 23.4261 20.7087 23.6854C20.2388 23.9206 19.5962 24.0669 18.8926 24.0669C18.189 24.0669 17.5464 23.9206 17.0765 23.6854C16.6324 23.4631 16.3332 23.1539 16.2566 22.7992H16.1624L16.1634 22.8ZM15.0259 21.2917C15.1265 21.3306 15.2262 21.3713 15.3241 21.4204C15.7765 21.6472 16.0794 21.9639 16.1486 22.3287H16.2382V21.4056C16.2382 21.3676 16.2409 21.3296 16.2456 21.2926H15.025L15.0259 21.2917ZM10.8654 22.3398C10.93 21.9704 11.2347 21.65 11.6918 21.4204C11.785 21.3741 11.8847 21.3306 11.99 21.2917H11.0519C10.9217 21.2917 10.8155 21.1852 10.8155 21.0546C10.8155 20.9241 10.9217 20.8176 11.0519 20.8176H16.4549C16.6008 20.6324 16.8132 20.4694 17.0782 20.3361C17.5481 20.1009 18.1907 19.9546 18.8943 19.9546C19.0734 19.9546 19.2479 19.9639 19.4169 19.9824V19.9287C19.283 19.9185 19.1556 19.9019 19.0355 19.8769C18.4936 19.7658 18.0984 19.5046 17.9664 19.1185C17.9534 19.1204 17.9405 19.1213 17.9276 19.1213H11.0518C10.9216 19.1213 10.8154 19.0148 10.8154 18.8843C10.8154 18.7537 10.9216 18.6472 11.0518 18.6472H17.838L17.6358 17.8898C17.5527 17.5389 17.6663 17.2315 17.8795 16.951H11.0517C10.9215 16.951 10.8153 16.8445 10.8153 16.7139C10.8153 16.5834 10.9215 16.4769 11.0517 16.4769H17.9275C18.0374 16.4769 18.1288 16.5519 18.1556 16.6528L18.1704 16.6398C18.4815 16.3639 18.9118 16.113 19.4159 15.9306V8.01212H18.0826C17.9525 8.01212 17.8463 7.90564 17.8463 7.77509V6.43805H7.54791V22.3473L10.8654 22.3398ZM21.4592 16.1389L19.5508 18.2908C19.8333 18.2769 20.1842 18.226 20.4538 18.1445C21.0631 17.9806 21.5793 17.7112 21.9181 17.4093C22.2117 17.1482 22.365 16.8732 22.3114 16.6463C22.2357 16.3454 21.8516 16.2158 21.5839 16.1611C21.5433 16.1528 21.5017 16.1454 21.4592 16.1389ZM18.7217 18.7056C18.5721 18.675 18.4336 18.6324 18.308 18.5796L18.4041 18.9407C18.465 19.1694 18.7383 19.3343 19.1288 19.4148C19.6533 19.5222 20.2636 19.4509 20.7649 19.3167C21.3743 19.1528 21.8904 18.8833 22.2302 18.5815C22.5284 18.3167 22.6826 18.037 22.6217 17.8074L22.5256 17.4472C22.4435 17.5565 22.3447 17.662 22.2302 17.7639C21.8387 18.112 21.2552 18.4194 20.5756 18.6028C19.9921 18.7593 19.3236 18.8296 18.7226 18.7065L18.7217 18.7056ZM18.9414 18.2648L20.8499 16.113C20.4741 16.1315 20.0955 16.2056 19.7373 16.3204C19.2849 16.4741 18.8436 16.6722 18.4825 16.9935C18.1843 17.2583 18.0301 17.538 18.092 17.7676C18.1529 17.9972 18.4253 18.1611 18.8168 18.2417C18.8574 18.25 18.899 18.2574 18.9414 18.2639L18.9414 18.2648ZM20.3827 20.7046L17.9831 22.288C18.2601 22.3472 18.5676 22.3806 18.8926 22.3806C19.525 22.3806 20.0929 22.2546 20.4982 22.0509C20.8546 21.8722 21.0753 21.6426 21.0753 21.4046C21.0753 21.1667 20.8546 20.9361 20.4982 20.7583C20.4613 20.7398 20.4224 20.7213 20.3827 20.7046ZM17.4033 22.1056L19.8029 20.5222C19.5074 20.4574 19.1926 20.4297 18.8925 20.4297C18.26 20.4297 17.6922 20.5556 17.2869 20.7593C17.0505 20.8778 16.7098 21.1084 16.7098 21.4056C16.7098 21.6435 16.9305 21.8732 17.2869 22.0519C17.3238 22.0704 17.3626 22.0889 17.4023 22.1056L17.4033 22.1056ZM16.7108 22.2445V22.6176C16.7108 22.8556 16.9315 23.0852 17.2879 23.2639C17.6932 23.4676 18.2611 23.5935 18.8935 23.5935C19.526 23.5935 20.0938 23.4676 20.4991 23.2639C20.8555 23.0852 21.0762 22.8556 21.0762 22.6176V22.2445C20.9691 22.3278 20.8463 22.4047 20.7097 22.4732C20.2397 22.7084 19.5971 22.8547 18.8935 22.8547C18.298 22.8547 17.6268 22.7491 17.0774 22.4732C16.9408 22.4047 16.817 22.3278 16.7108 22.2445ZM15.0388 20.2973C14.9086 20.2973 14.8024 20.1908 14.8024 20.0602C14.8024 19.9297 14.9086 19.8232 15.0388 19.8232H15.902C16.0322 19.8232 16.1384 19.9297 16.1384 20.0602C16.1384 20.1908 16.0322 20.2973 15.902 20.2973H15.0388ZM14.1755 19.8232C14.3057 19.8232 14.4119 19.9297 14.4119 20.0602C14.4119 20.1908 14.3057 20.2973 14.1755 20.2973H11.0519C10.9218 20.2973 10.8156 20.1908 10.8156 20.0602C10.8156 19.9297 10.9218 19.8232 11.0519 19.8232H14.1755ZM9.03742 19.8213H10.03C10.1601 19.8213 10.2663 19.9278 10.2663 20.0584V21.0547C10.2663 21.1852 10.1601 21.2917 10.03 21.2917H9.03742C8.90724 21.2917 8.80106 21.1852 8.80106 21.0547V20.0584C8.80106 19.9278 8.90724 19.8213 9.03742 19.8213ZM9.7936 20.2954H9.27378V20.8167H9.7936V20.2954ZM15.0387 18.1269C14.9086 18.1269 14.8024 18.0204 14.8024 17.8899C14.8024 17.7593 14.9086 17.6528 15.0387 17.6528H15.902C16.0322 17.6528 16.1384 17.7593 16.1384 17.8899C16.1384 18.0204 16.0322 18.1269 15.902 18.1269H15.0387ZM14.1755 17.6528C14.3057 17.6528 14.4118 17.7593 14.4118 17.8899C14.4118 18.0204 14.3057 18.1269 14.1755 18.1269H11.0519C10.9217 18.1269 10.8156 18.0204 10.8156 17.8899C10.8156 17.7593 10.9217 17.6528 11.0519 17.6528H14.1755ZM9.0374 17.651H10.0299C10.1601 17.651 10.2663 17.7575 10.2663 17.888V18.8843C10.2663 19.0149 10.1601 19.1213 10.0299 19.1213H9.0374C8.90721 19.1213 8.80103 19.0149 8.80103 18.8843V17.888C8.80103 17.7575 8.90721 17.651 9.0374 17.651ZM9.79357 18.125H9.27376V18.6463H9.79357V18.125ZM15.0387 15.9565C14.9085 15.9565 14.8024 15.8501 14.8024 15.7195C14.8024 15.5889 14.9085 15.4825 15.0387 15.4825H15.902C16.0322 15.4825 16.1384 15.5889 16.1384 15.7195C16.1384 15.8501 16.0322 15.9565 15.902 15.9565H15.0387ZM14.1754 15.4825C14.3056 15.4825 14.4118 15.5889 14.4118 15.7195C14.4118 15.8501 14.3056 15.9565 14.1754 15.9565H11.0519C10.9217 15.9565 10.8155 15.8501 10.8155 15.7195C10.8155 15.5889 10.9217 15.4825 11.0519 15.4825H14.1754ZM9.03737 15.4806H10.0299C10.1601 15.4806 10.2663 15.5871 10.2663 15.7176V16.7139C10.2663 16.8445 10.1601 16.951 10.0299 16.951H9.03737C8.90719 16.951 8.80101 16.8445 8.80101 16.7139V15.7176C8.80101 15.5871 8.90719 15.4806 9.03737 15.4806ZM9.79355 15.9547H9.27374V16.476H9.79355V15.9547ZM13.482 7.55646C14.4127 7.55646 15.2566 7.93517 15.8679 8.54813C16.4791 9.16016 16.8567 10.0065 16.8567 10.9417C16.8567 11.8769 16.4791 12.7232 15.8679 13.3353C15.2566 13.9474 14.4118 14.327 13.4811 14.327C12.5495 14.327 11.7046 13.9483 11.0943 13.3353C10.484 12.7224 10.1054 11.8761 10.1054 10.9417C10.1054 10.0074 10.484 9.16118 11.0943 8.54908C11.7055 7.93612 12.5503 7.55648 13.4811 7.55648L13.482 7.55646ZM15.5345 8.8824C15.01 8.35554 14.2843 8.03053 13.482 8.03053C12.6806 8.03053 11.954 8.35646 11.4286 8.8824C10.9042 9.40926 10.5792 10.137 10.5792 10.9417C10.5792 11.7454 10.9042 12.4741 11.4286 13C11.954 13.5259 12.6806 13.8519 13.482 13.8519C14.2843 13.8519 15.01 13.5269 15.5345 13.0009C16.0599 12.4732 16.3849 11.7454 16.3849 10.9417C16.3849 10.138 16.0599 9.41018 15.5345 8.8824ZM13.0101 9.28425H13.9537C14.0839 9.28425 14.1901 9.39073 14.1901 9.52128V10.2305H14.8973C15.0275 10.2305 15.1337 10.337 15.1337 10.4676V11.4139C15.1337 11.5444 15.0275 11.6509 14.8973 11.6509H14.1901V12.3602C14.1901 12.4907 14.0839 12.5972 13.9537 12.5972H13.0101C12.8799 12.5972 12.7738 12.4907 12.7738 12.3602V11.6509H12.0665C11.9363 11.6509 11.8302 11.5444 11.8302 11.4139V10.4676C11.8302 10.337 11.9363 10.2305 12.0665 10.2305H12.7738V9.52128C12.7738 9.39073 12.8799 9.28425 13.0101 9.28425ZM13.7174 9.75832H13.2465V10.4676C13.2465 10.5981 13.1403 10.7046 13.0101 10.7046H12.3029V11.1768H13.0101C13.1403 11.1768 13.2465 11.2833 13.2465 11.4139V12.1231H13.7174V11.4139C13.7174 11.2833 13.8236 11.1768 13.9537 11.1768H14.661V10.7046H13.9537C13.8236 10.7046 13.7174 10.5981 13.7174 10.4676V9.75832ZM15.3442 5.18801L15.1743 3.79172L3.39302 5.23245L5.31348 21.025L6.29124 20.9056V5.42495C6.29124 5.29439 6.39742 5.18791 6.52761 5.18791H15.3452L15.3442 5.18801ZM18.632 6.41394V5.66208H6.76304V21.5713H7.07603L7.07511 6.19826C7.07511 6.06771 7.18128 5.96122 7.31147 5.96122H18.0826C18.1509 5.96308 18.2007 5.98437 18.2497 6.03067L18.632 6.41394Z" fill="black"/>
</g>
</svg>
