<svg width="32" height="40" viewBox="0 0 32 40" fill="none" xmlns="http://www.w3.org/2000/svg">
<g id="noun-support-7106511 1">
<path id="Vector" d="M27.0056 26.7627H26.5033C26.5033 25.6423 26.1067 20.9328 21.0214 18.2593C21.2169 17.8438 21.3623 17.4051 21.4544 16.9537C22.7385 16.8716 23.7487 15.8033 23.7816 14.4931C23.8146 13.1829 22.86 12.0637 21.5816 11.9132V11.2165C21.5816 9.18521 20.518 7.30803 18.7907 6.29292C17.0634 5.27671 14.9362 5.27671 13.2087 6.29292C11.4815 7.30797 10.4178 9.18527 10.4178 11.2165V11.9132C9.13942 12.0637 8.18486 13.1829 8.21782 14.4931C8.25077 15.8033 9.26099 16.8716 10.5451 16.9537C10.6405 17.4051 10.7894 17.8438 10.9871 18.2593C5.90203 20.9317 5.53258 25.6424 5.50523 26.7627H4.99387C4.86774 26.7627 4.7666 26.8657 4.7666 26.9942C4.7666 27.1215 4.86774 27.2257 4.99387 27.2257H9.25075L9.60871 28.8889C9.75758 29.5578 10.3405 30.0335 11.0144 30.037H20.9847C21.6586 30.0335 22.2415 29.5578 22.3904 28.8889L22.7483 27.2407H26.9904C27.1154 27.2407 27.2177 27.1365 27.2177 27.0092C27.2177 26.8819 27.1154 26.7777 26.9904 26.7777L27.0056 26.7627ZM23.384 14.4166H23.3852C23.3829 15.4872 22.5806 16.3807 21.5329 16.478C21.5329 16.4004 21.5511 16.3263 21.5568 16.2499H21.5579C21.5784 16.1932 21.5784 16.1307 21.5579 16.074V15.787V12.3704C22.5931 12.478 23.3829 13.3658 23.3852 14.4259L23.384 14.4166ZM8.61459 14.4166C8.61572 13.3645 9.39187 12.4803 10.418 12.3611V15.7868C10.4203 16.0183 10.4362 16.2486 10.4669 16.4778C9.42255 16.3817 8.62139 15.4929 8.61458 14.4257L8.61459 14.4166ZM10.8725 13.228C11.6396 13.2094 14.0725 13.0578 15.1361 11.8668L16.2361 13.6203C16.2781 13.6886 16.3509 13.7291 16.4304 13.728H16.4906C16.594 13.6967 19.0031 12.9745 19.7122 11.5671V11.5682C19.7622 11.456 19.7178 11.3229 19.6099 11.2662C19.5019 11.2083 19.3701 11.2476 19.3087 11.3553C18.7849 12.3831 17.0633 13.0347 16.5269 13.2071L15.3451 11.3275C15.3042 11.2604 15.2315 11.2198 15.1542 11.2187C15.0769 11.2187 15.0042 11.2604 14.9633 11.3275C14.1849 12.5624 11.6303 12.7291 10.8725 12.7499V11.2164C10.8725 9.35063 11.8498 7.62615 13.4362 6.69311C15.0225 5.76026 16.9771 5.76026 18.5634 6.69311C20.1498 7.62597 21.1271 9.35054 21.1271 11.2164V15.7962V16.0775L21.0907 16.1145C20.2453 16.9629 19.1055 17.4374 17.918 17.4351H17.4396C17.3203 16.6678 16.6431 16.1226 15.8828 16.1839C15.1226 16.2441 14.5362 16.8899 14.5362 17.6666C14.5362 18.4432 15.1226 19.089 15.8828 19.1492C16.6431 19.2106 17.3203 18.6654 17.4396 17.898H17.9033C19.0419 17.9004 20.1476 17.5022 21.0329 16.7719C20.7159 18.4929 19.5727 19.9375 17.9885 20.6178C16.4044 21.2984 14.5896 21.1247 13.158 20.1548C11.7273 19.1838 10.8682 17.5472 10.8728 15.796L10.8725 13.228ZM17.0055 17.6665C17.0043 18.0808 16.7589 18.4535 16.3828 18.6109C16.0066 18.7683 15.5748 18.6804 15.2873 18.3864C14.9998 18.0936 14.9146 17.6526 15.0703 17.2707C15.2271 16.8876 15.593 16.6387 15.9998 16.6387C16.2669 16.6387 16.5237 16.7475 16.7123 16.9396C16.9009 17.1329 17.0066 17.3945 17.0055 17.6665ZM21.9474 28.7776H21.9486C21.8497 29.2382 21.4474 29.567 20.9849 29.5646H19.9395L21.0849 26.2348C21.1258 26.1133 21.0645 25.9802 20.9452 25.9385C20.8258 25.8957 20.6963 25.9594 20.6542 26.0797L19.4417 29.5577L11.0144 29.5588C10.5519 29.56 10.1496 29.2324 10.0508 28.7718L9.37576 25.648C9.30531 25.3494 9.37463 25.0345 9.56212 24.7938C9.74962 24.5531 10.0349 24.413 10.336 24.413H10.969L12.1815 27.8909V27.8921C12.2133 27.9847 12.2997 28.0483 12.3962 28.0495C12.4212 28.053 12.4474 28.053 12.4724 28.0495C12.5326 28.0287 12.5815 27.9847 12.6087 27.9256C12.6349 27.8678 12.636 27.7995 12.6122 27.7405L11.4542 24.429H21.6666C21.9677 24.4279 22.2529 24.5679 22.4404 24.8087C22.6279 25.0494 22.6961 25.3642 22.6268 25.6628L21.9474 28.7776ZM22.7838 24.5219H22.7849C22.5122 24.1747 22.0997 23.9721 21.6633 23.9721H10.3359C9.89956 23.9733 9.48705 24.1747 9.21433 24.5219C8.94046 24.868 8.83591 25.3217 8.93024 25.7557L9.15183 26.7684H5.95066C5.96544 25.7372 6.3143 21.2348 11.1928 18.6724H11.194C12.1906 20.4143 14.0201 21.4849 15.9998 21.4849C17.9795 21.4849 19.809 20.4143 20.8056 18.6724C25.6842 21.2338 26.033 25.7373 26.0478 26.7684H22.849L23.0706 25.7557H23.0694C23.1672 25.3193 23.0615 24.8622 22.7853 24.515L22.7838 24.5219Z" fill="black"/>
</g>
</svg>
