<svg width="22" height="28" viewBox="0 0 22 28" fill="none" xmlns="http://www.w3.org/2000/svg">
<g id="noun-treatment-7409981 1">
<path id="Vector" d="M8.83118 18.3679H6.84446V20.4226H8.83118V18.3679ZM8.58118 19.3157L7.97494 19.9418C7.8515 20.0711 7.64838 20.0711 7.52338 19.9418L7.09604 19.4999C6.97104 19.3706 6.97104 19.1605 7.09604 19.0329C7.21947 18.9036 7.4226 18.9036 7.5476 19.0329L7.74916 19.2413L8.12962 18.8495C8.25462 18.7202 8.45618 18.7202 8.58118 18.8495C8.70618 18.9763 8.70618 19.1864 8.58118 19.3157ZM5.55158 22.0393H15.1172V18.3768C13.6562 17.7717 12.6242 16.2932 12.6242 14.5648C12.6242 12.8374 13.6554 11.3588 15.1172 10.7528V7.09198H14.1414C13.9726 7.67613 13.4648 8.11808 12.8437 8.11808H7.82414C7.20226 8.11808 6.69602 7.67613 6.52726 7.09198H5.55148L5.55158 22.0393ZM10.886 9.49647H14.211C14.3875 9.49647 14.5297 9.64513 14.5297 9.82774C14.5297 10.0103 14.3868 10.1574 14.211 10.1574H10.886C10.7102 10.1574 10.5672 10.0095 10.5672 9.82774C10.5664 9.64514 10.7102 9.49647 10.886 9.49647ZM10.886 10.7052H12.7922C12.9688 10.7052 13.111 10.8539 13.111 11.0348C13.111 11.2174 12.968 11.3661 12.7922 11.3661H10.886C10.7102 11.3661 10.5672 11.2175 10.5672 11.0348C10.5664 10.8539 10.7102 10.7052 10.886 10.7052ZM10.886 13.9798H11.9922C12.1688 13.9798 12.3125 14.1277 12.3125 14.3095C12.3125 14.4921 12.1688 14.6392 11.9922 14.6392H10.886C10.7102 14.6392 10.5672 14.4913 10.5672 14.3095C10.5664 14.1269 10.7102 13.9798 10.886 13.9798ZM10.886 15.1869H12.0774C12.2539 15.1869 12.3961 15.3356 12.3961 15.5182C12.3961 15.7008 12.2532 15.8479 12.0774 15.8479H10.886C10.7102 15.8479 10.5672 15.7 10.5672 15.5182C10.5664 15.3356 10.7102 15.1869 10.886 15.1869ZM10.886 18.4607H14.211C14.3875 18.4607 14.5297 18.6086 14.5297 18.7904C14.5297 18.973 14.3868 19.1201 14.211 19.1201L10.886 19.1209C10.7102 19.1209 10.5672 18.973 10.5672 18.7912C10.5664 18.6086 10.7102 18.4607 10.886 18.4607ZM10.886 19.6695H12.7922C12.9688 19.6695 13.111 19.8165 13.111 19.9991C13.111 20.1817 12.968 20.3288 12.7922 20.3288H10.886C10.7102 20.3288 10.5672 20.1809 10.5672 19.9991C10.5664 19.8165 10.7102 19.6695 10.886 19.6695ZM6.20638 9.0738C6.20638 8.8912 6.35013 8.74414 6.5267 8.74414H9.1525C9.32906 8.74414 9.47126 8.89119 9.47126 9.0738V11.7894C9.47126 11.972 9.32829 12.119 9.1525 12.119H6.5259C6.34933 12.119 6.20558 11.9712 6.20558 11.7894V9.0738H6.20638ZM6.20638 13.5556C6.20638 13.373 6.35013 13.2259 6.5267 13.2259H9.1525C9.32906 13.2259 9.47126 13.3738 9.47126 13.5556V16.2711C9.47126 16.4537 9.32829 16.6024 9.1525 16.6024L6.5259 16.6016C6.34933 16.6016 6.20558 16.4529 6.20558 16.2703V13.5556L6.20638 13.5556ZM6.20638 18.0381C6.20638 17.8555 6.35013 17.7069 6.5267 17.7069H9.1525C9.32906 17.7069 9.47126 17.8555 9.47126 18.0381V20.7537C9.47126 20.9355 9.32829 21.0834 9.1525 21.0834H6.5259C6.34933 21.0834 6.20558 20.9347 6.20558 20.7537V18.0381H6.20638ZM14.2018 5.72572C14.2018 5.6433 14.1955 5.56089 14.1822 5.48171H15.683C16.1838 5.48171 16.594 5.90589 16.594 6.42379V10.4596C16.3065 10.4596 16.026 10.4911 15.7565 10.5517V6.7608C15.7565 6.579 15.6127 6.43114 15.4377 6.43114H14.2025L14.2018 5.72572ZM8.83138 9.40349H6.84466V11.4589H8.83138V9.40349ZM8.58138 10.3512L7.97514 10.9782C7.8517 11.1075 7.64858 11.1075 7.52358 10.9782L7.09624 10.5354C6.97124 10.4062 6.97124 10.1977 7.09624 10.0684C7.21967 9.94078 7.4228 9.94078 7.5478 10.0684L7.74936 10.2785L8.12982 9.88503C8.25482 9.75738 8.45638 9.75738 8.58138 9.88503C8.70638 10.0135 8.70638 10.222 8.58138 10.3512ZM8.83138 13.8861H6.84466V15.9407H8.83138V13.8861ZM8.58138 14.833L7.97514 15.46C7.8517 15.5892 7.64858 15.5892 7.52358 15.46L7.09624 15.0164C6.97124 14.8887 6.97124 14.6787 7.09624 14.5494C7.21967 14.4218 7.4228 14.4218 7.5478 14.5494L7.74936 14.7595L8.12982 14.3668C8.25482 14.2375 8.45638 14.2375 8.58138 14.3668C8.70638 14.4953 8.70638 14.7045 8.58138 14.833ZM15.7564 18.5786C16.0259 18.6384 16.3072 18.6707 16.5939 18.6707V22.7065C16.5939 23.2244 16.1837 23.6486 15.6829 23.6486H4.98614C4.48536 23.6486 4.0752 23.2244 4.0752 22.7065V6.4245C4.0752 5.9066 4.48536 5.48241 4.98614 5.48241H6.48536C6.47364 5.56159 6.46661 5.6432 6.46661 5.72642V6.43178H5.23145C5.05488 6.43178 4.91269 6.58044 4.91269 6.76144V22.3704C4.91269 22.5522 5.05565 22.7001 5.23145 22.7001H15.4368C15.6126 22.7001 15.7556 22.5514 15.7556 22.3704L15.7564 18.5786ZM7.10478 6.66602V5.72636C7.10478 5.29086 7.429 4.93537 7.82432 4.93537H8.73214C8.73214 3.96178 9.44932 3.17241 10.3345 3.17241C11.2189 3.17241 11.9368 3.96178 11.9368 4.93537H12.8431C13.2392 4.93537 13.5626 5.29169 13.5626 5.72636V6.66602C13.5626 7.10152 13.2392 7.45701 12.8431 7.45701H7.82426C7.42972 7.45701 7.10478 7.10069 7.10478 6.66602ZM16.5938 11.1203C14.7594 11.1203 13.2634 12.6675 13.2634 14.5654C13.2634 16.4633 14.7595 18.0104 16.5938 18.0104C18.4289 18.0104 19.925 16.4632 19.925 14.5654C19.925 12.6675 18.4289 11.1203 16.5938 11.1203ZM18.6898 15.1133C18.6898 15.2951 18.5468 15.4429 18.371 15.4429H17.4429V16.402C17.4429 16.5846 17.2999 16.7332 17.1241 16.7332H16.0663C15.8898 16.7332 15.746 16.5846 15.746 16.402V15.4429H14.8187C14.6421 15.4429 14.4983 15.2943 14.4983 15.1133V14.0177C14.4983 13.8359 14.6421 13.688 14.8187 13.688H15.746L15.7452 12.7274C15.7452 12.5456 15.889 12.3977 16.0655 12.3977H17.1234C17.2999 12.3977 17.4421 12.5464 17.4421 12.7274V13.6872H18.3702C18.5468 13.6872 18.689 13.8359 18.689 14.0169L18.6898 15.1133ZM17.1234 14.3489H18.0507V14.782H17.1234C16.9468 14.782 16.8031 14.9307 16.8031 15.1133V16.0723H16.3843V15.1133C16.3843 14.9307 16.2413 14.782 16.0655 14.782H15.1366V14.3489H16.0655C16.2421 14.3489 16.3843 14.2003 16.3843 14.0177V13.0586H16.8031V14.0177C16.8031 14.2003 16.9468 14.3489 17.1234 14.3489Z" fill="white"/>
</g>
</svg>
