<svg width="23" height="19" viewBox="0 0 23 19" fill="none" xmlns="http://www.w3.org/2000/svg">
<path id="Vector" fill-rule="evenodd" clip-rule="evenodd" d="M1.56802 1.81802C0.25 3.13604 0.25 5.25736 0.25 9.5C0.25 13.7426 0.25 15.864 1.56802 17.182C2.88604 18.5 5.00736 18.5 9.25 18.5H13.75C17.9926 18.5 20.114 18.5 21.432 17.182C22.75 15.864 22.75 13.7426 22.75 9.5C22.75 5.25736 22.75 3.13604 21.432 1.81802C20.114 0.5 17.9926 0.5 13.75 0.5H9.25C5.00736 0.5 2.88604 0.5 1.56802 1.81802ZM18.8982 4.45984C19.1965 4.81783 19.1481 5.34987 18.7902 5.64819L16.3191 7.70739C15.322 8.53838 14.5137 9.21191 13.8004 9.67069C13.0574 10.1486 12.3337 10.4505 11.5 10.4505C10.6663 10.4505 9.94263 10.1486 9.19957 9.67069C8.48626 9.21191 7.67805 8.53839 6.6809 7.7074L4.20984 5.64819C3.85186 5.34987 3.80349 4.81783 4.10181 4.45984C4.40013 4.10186 4.93217 4.05349 5.29015 4.35181L7.71891 6.37578C8.76849 7.25043 9.4972 7.85572 10.1124 8.25139C10.7079 8.63441 11.1118 8.76298 11.5 8.76298C11.8882 8.76298 12.2921 8.63441 12.8876 8.25139C13.5028 7.85572 14.2315 7.25043 15.2811 6.37578L17.7098 4.35181C18.0678 4.05349 18.5999 4.10186 18.8982 4.45984Z" fill="#189297"/>
</svg>
