<svg width="70" height="74" viewBox="0 0 70 74" fill="none" xmlns="http://www.w3.org/2000/svg">
<g id="noun-weight-7386276 1">
<path id="Vector" d="M61.3382 43.105C61.3356 44.4392 60.249 45.5216 58.9101 45.5216H12.0895C10.7507 45.5216 9.66907 44.4392 9.66907 43.105C9.66907 41.7683 10.7507 40.6883 12.0895 40.6883H58.9101C60.249 40.6883 61.3356 41.7683 61.3382 43.105ZM39.8239 56.53H51.7499V54.5161H39.8168L39.8239 56.53ZM59.9943 60.51C59.5581 61.167 58.8244 61.5597 58.0378 61.5572H12.9896C12.2029 61.5597 11.4667 61.167 11.0305 60.5125C10.5969 59.8555 10.5212 59.0247 10.8313 58.3023L13.8166 51.3017C14.1796 50.4181 15.0444 49.8416 16.0025 49.8517H54.997C55.9375 49.8491 56.7896 50.4105 57.1553 51.2739L60.1405 58.2745C60.4607 58.9945 60.3952 59.8252 59.9666 60.4848L59.9943 60.51ZM21.5343 56.8523C21.5343 56.5753 21.3099 56.3488 21.03 56.3488H18.7432H18.7457C18.4658 56.3488 18.2414 56.5753 18.2414 56.8523C18.2414 57.1292 18.4658 57.3557 18.7457 57.3557H21.0325H21.03C21.3099 57.3557 21.5343 57.1292 21.5343 56.8523ZM21.5343 54.1662C21.5368 54.0328 21.4838 53.9044 21.3905 53.8087C21.2947 53.7131 21.1662 53.6627 21.03 53.6627H18.7432H18.7457C18.4658 53.6627 18.2414 53.8893 18.2414 54.1662C18.2414 54.4456 18.4658 54.6697 18.7457 54.6697H21.0325H21.03C21.1687 54.6697 21.2998 54.6143 21.3956 54.5161C21.4889 54.4179 21.5418 54.2845 21.5343 54.1461V54.1662ZM26.302 56.8523C26.2995 56.5753 26.0751 56.3513 25.7978 56.3488H23.5109C23.2336 56.3488 23.0067 56.5753 23.0067 56.8523C23.0067 57.1292 23.2336 57.3557 23.5109 57.3557H25.7978C26.0751 57.3532 26.2995 57.1292 26.302 56.8523ZM26.302 54.1662C26.302 53.8893 26.0751 53.6627 25.7978 53.6627H23.5109C23.2336 53.6627 23.0067 53.8893 23.0067 54.1662C23.0067 54.4456 23.2336 54.6697 23.5109 54.6697H25.7978C25.9339 54.6697 26.065 54.6118 26.1583 54.5136C26.2541 54.4154 26.3046 54.2845 26.302 54.1461V54.1662ZM31.0698 56.8523C31.0648 56.5753 30.8429 56.3513 30.5656 56.3488H28.2787C28.0014 56.3488 27.7745 56.5753 27.7745 56.8523C27.7745 57.1292 28.0014 57.3557 28.2787 57.3557H30.5656C30.8429 57.3532 31.0648 57.1292 31.0698 56.8523ZM31.0698 54.1662C31.0698 53.8893 30.8429 53.6627 30.5656 53.6627H28.2787C28.0014 53.6627 27.7745 53.8893 27.7745 54.1662C27.7745 54.4456 28.0014 54.6697 28.2787 54.6697H30.5656C30.7017 54.6697 30.8328 54.6118 30.9261 54.5136C31.0219 54.4154 31.0723 54.2845 31.0698 54.1461V54.1662ZM52.7603 54.0126H52.7578C52.7578 53.7357 52.5334 53.5092 52.2535 53.5092H39.3115C39.0342 53.5092 38.8073 53.7357 38.8073 54.0126V57.0259C38.8098 57.3029 39.0342 57.5269 39.3115 57.5294H52.2535C52.5309 57.5269 52.7553 57.3029 52.7578 57.0259L52.7603 54.0126ZM33.9337 19.1521L35.3254 21.0451C35.4187 21.1735 35.5271 21.1735 35.6204 21.0451L37.0122 19.1521C37.2441 18.8601 37.5971 18.6914 37.9703 18.6914C38.3434 18.6914 38.6964 18.8601 38.9284 19.1521L39.9898 20.5416V12.7277H31.009V20.5416L32.0453 19.1319H32.0427C32.2747 18.8399 32.6277 18.6712 33.0008 18.6712C33.374 18.6712 33.727 18.8399 33.959 19.1319L33.9337 19.1521ZM46.5807 30.4498V37.0225H48.5574V30.4498C48.5574 30.1729 48.7818 29.9464 49.0617 29.9464H50.7283L47.6018 26.12L44.4149 29.9388H46.0764C46.21 29.9388 46.3386 29.9942 46.4344 30.0899C46.5303 30.1855 46.5807 30.3139 46.5807 30.4498ZM36.0921 35.6784H19.7137V27.1749H36.0921V35.6784ZM25.1923 32.9345C25.1898 32.6576 24.9654 32.4335 24.6881 32.431H22.5172C22.2373 32.431 22.0129 32.6551 22.0129 32.9345C22.0129 33.2114 22.2373 33.438 22.5172 33.438H24.6881C24.9654 33.438 25.1923 33.2114 25.1923 32.9345ZM25.1923 29.9212V29.9187C25.1923 29.6418 24.9654 29.4152 24.6881 29.4152H22.5172C22.2373 29.4152 22.0129 29.6418 22.0129 29.9187C22.0129 30.1981 22.2373 30.4221 22.5172 30.4221H24.6881C24.9578 30.4196 25.1772 30.2082 25.1923 29.9388V29.9212ZM33.7923 32.9345C33.7873 32.6576 33.5654 32.4335 33.2881 32.431H26.2739C25.9966 32.431 25.7697 32.6551 25.7697 32.9345C25.7697 33.2114 25.9966 33.438 26.2739 33.438H33.2881C33.5654 33.438 33.7923 33.2114 33.7923 32.9345ZM33.7923 29.9212V29.9187C33.7923 29.6418 33.5654 29.4152 33.2881 29.4152H26.2739C25.9966 29.4152 25.7697 29.6418 25.7697 29.9187C25.7697 30.1981 25.9966 30.4221 26.2739 30.4221H33.2881C33.5579 30.4196 33.7772 30.2082 33.7923 29.9388V29.9212ZM14.7766 39.6813V16.4136C14.7766 14.3771 16.4306 12.7282 18.4678 12.7282H30.0002V21.0931C29.9951 21.453 30.2271 21.7728 30.57 21.8835C30.9053 21.9817 31.2633 21.8584 31.465 21.5764L32.8089 19.7312C32.9097 19.5978 33.0106 19.5978 33.1039 19.7312L34.4956 21.6242L34.4981 21.6217C34.7225 21.9263 35.0805 22.1051 35.4587 22.1051C35.837 22.1051 36.195 21.9263 36.4194 21.6217L37.8111 19.7287C37.9044 19.5953 38.0052 19.5953 38.1061 19.7287L39.4499 21.5739L39.4525 21.5764C39.6617 21.8659 40.0324 21.9893 40.3727 21.8785C40.7156 21.7677 40.9451 21.4506 40.9451 21.0931V12.7282H52.5303C54.5675 12.7282 56.2216 14.3771 56.2216 16.4136V39.6813L14.7766 39.6813ZM42.8939 30.6642C42.9771 30.8404 43.1561 30.9537 43.3528 30.9537H45.5841V37.5264C45.5841 37.8033 45.811 38.0299 46.0884 38.0299H49.0736C49.351 38.0299 49.5779 37.8033 49.5779 37.5264V30.9537H51.8042C51.9983 30.9537 52.1773 30.8404 52.2605 30.6642C52.3462 30.4905 52.321 30.2816 52.1925 30.1356L47.9692 25.0077L47.9718 25.0052C47.8734 24.8945 47.7297 24.829 47.581 24.829C47.4322 24.829 47.2885 24.8945 47.1902 25.0052L42.9669 30.1331L42.9695 30.1356C42.8409 30.2816 42.8107 30.4905 42.8939 30.6642ZM18.6894 36.1823C18.6894 36.4617 18.9163 36.6858 19.1936 36.6858H36.5957C36.8731 36.6858 37.1 36.4617 37.1 36.1823V26.6716C37.1 26.5356 37.0496 26.4072 36.9537 26.3116C36.8579 26.2185 36.7293 26.1656 36.5957 26.1681H19.2085C19.0723 26.1656 18.9437 26.2184 18.8479 26.3116C18.7546 26.4073 18.7017 26.5356 18.7042 26.6716L18.6894 36.1823ZM45.1478 62.5388C45.5437 63.7672 46.6858 64.6005 47.9767 64.6055H51.1384C52.4293 64.6005 53.5715 63.7672 53.9673 62.5388H45.1478ZM26.0114 48.8443V46.5283H16.8692V48.8443H26.0114ZM44.9845 48.8443H54.1293V46.5283H44.9871L44.9845 48.8443ZM17.0305 62.5388C17.4264 63.7672 18.5685 64.6005 19.8594 64.6055H23.0211C24.312 64.6005 25.4542 63.7672 25.85 62.5388H17.0305Z" fill="#20C997"/>
</g>
</svg>
